Akt-1000.ufo
<glyph name="numbersign" format="2">
  <advance width="600"/>
  <unicode hex="0023"/>
  <outline>
    <contour>
      <point x="93" y="0" type="line"/>
      <point x="216" y="0" type="line"/>
      <point x="221" y="166" type="line"/>
      <point x="366" y="166" type="line"/>
      <point x="361" y="0" type="line"/>
      <point x="484" y="0" type="line"/>
      <point x="489" y="166" type="line"/>
      <point x="579" y="166" type="line"/>
      <point x="579" y="270" type="line"/>
      <point x="493" y="270" type="line"/>
      <point x="498" y="450" type="line"/>
      <point x="592" y="450" type="line"/>
      <point x="592" y="554" type="line"/>
      <point x="502" y="554" type="line"/>
      <point x="507" y="720" type="line"/>
      <point x="384" y="720" type="line"/>
      <point x="379" y="554" type="line"/>
      <point x="234" y="554" type="line"/>
      <point x="239" y="720" type="line"/>
      <point x="116" y="720" type="line"/>
      <point x="111" y="554" type="line"/>
      <point x="21" y="554" type="line"/>
      <point x="21" y="450" type="line"/>
      <point x="107" y="450" type="line"/>
      <point x="102" y="270" type="line"/>
      <point x="8" y="270" type="line"/>
      <point x="8" y="166" type="line"/>
      <point x="98" y="166" type="line"/>
    </contour>
    <contour>
      <point x="225" y="270" type="line"/>
      <point x="230" y="450" type="line"/>
      <point x="375" y="450" type="line"/>
      <point x="370" y="270" type="line"/>
    </contour>
  </outline>
</glyph>
<glyph name="dollar" format="2">
  <advance width="600"/>
  <unicode hex="0024"/>
  <outline>
    <contour>
      <point x="302" y="-12" type="qcurve" smooth="yes"/>
      <point x="373" y="-12"/>
      <point x="468" y="34"/>
      <point x="520" y="118"/>
      <point x="520" y="166" type="qcurve" smooth="yes"/>
      <point x="520" y="202"/>
      <point x="507" y="256"/>
      <point x="474" y="311"/>
      <point x="430" y="349" type="qcurve" smooth="yes"/>
      <point x="261" y="493" type="line" smooth="yes"/>
      <point x="254" y="499"/>
      <point x="234" y="519"/>
      <point x="222" y="543"/>
      <point x="222" y="559" type="qcurve" smooth="yes"/>
      <point x="222" y="579"/>
      <point x="243" y="606"/>
      <point x="277" y="618"/>
      <point x="301" y="618" type="qcurve" smooth="yes"/>
      <point x="329" y="618"/>
      <point x="365" y="598"/>
      <point x="386" y="558"/>
      <point x="386" y="510" type="qcurve"/>
      <point x="522" y="510" type="line"/>
      <point x="522" y="582"/>
      <point x="474" y="676"/>
      <point x="374" y="732"/>
      <point x="302" y="732" type="qcurve" smooth="yes"/>
      <point x="235" y="732"/>
      <point x="139" y="688"/>
      <point x="86" y="605"/>
      <point x="86" y="561" type="qcurve" smooth="yes"/>
      <point x="86" y="529"/>
      <point x="96" y="483"/>
      <point x="125" y="431"/>
      <point x="161" y="401" type="qcurve" smooth="yes"/>
      <point x="334" y="255" type="line" smooth="yes"/>
      <point x="357" y="235"/>
      <point x="379" y="205"/>
      <point x="384" y="180"/>
      <point x="384" y="168" type="qcurve" smooth="yes"/>
      <point x="384" y="148"/>
      <point x="365" y="118"/>
      <point x="331" y="102"/>
      <point x="303" y="102" type="qcurve" smooth="yes"/>
      <point x="275" y="102"/>
      <point x="231" y="122"/>
      <point x="212" y="167"/>
      <point x="212" y="210" type="qcurve"/>
      <point x="76" y="210" type="line"/>
      <point x="76" y="138"/>
      <point x="128" y="38"/>
      <point x="235" y="-12"/>
    </contour>
    <contour>
      <point x="252" y="-100" type="line"/>
      <point x="352" y="-100" type="line"/>
      <point x="352" y="40" type="line"/>
      <point x="252" y="40" type="line"/>
    </contour>
    <contour>
      <point x="252" y="680" type="line"/>
      <point x="352" y="680" type="line"/>
      <point x="352" y="820" type="line"/>
      <point x="252" y="820" type="line"/>
    </contour>
  </outline>
</glyph>
<glyph name="ampersand" format="2">
  <advance width="720"/>
  <unicode hex="0026"/>
  <outline>
    <contour>
      <point x="299" y="-12" type="qcurve" smooth="yes"/>
      <point x="399" y="-12"/>
      <point x="551" y="70"/>
      <point x="641" y="234"/>
      <point x="641" y="346" type="qcurve" smooth="yes"/>
      <point x="641" y="440" type="line"/>
      <point x="515" y="440" type="line"/>
      <point x="515" y="354" type="line" smooth="yes"/>
      <point x="515" y="266"/>
      <point x="455" y="160"/>
      <point x="371" y="110"/>
      <point x="317" y="110" type="qcurve" smooth="yes"/>
      <point x="269" y="110"/>
      <point x="215" y="132"/>
      <point x="188" y="169"/>
      <point x="188" y="192" type="qcurve" smooth="yes"/>
      <point x="188" y="224"/>
      <point x="216" y="263"/>
      <point x="262" y="295"/>
      <point x="300" y="323" type="qcurve" smooth="yes"/>
      <point x="342" y="354"/>
      <point x="451" y="421"/>
      <point x="508" y="511"/>
      <point x="508" y="569" type="qcurve" smooth="yes"/>
      <point x="508" y="615"/>
      <point x="458" y="689"/>
      <point x="370" y="732"/>
      <point x="304" y="732" type="qcurve" smooth="yes"/>
      <point x="238" y="732"/>
      <point x="142" y="684"/>
      <point x="88" y="599"/>
      <point x="88" y="539" type="qcurve" smooth="yes"/>
      <point x="88" y="514"/>
      <point x="102" y="462"/>
      <point x="133" y="410"/>
      <point x="169" y="373" type="qcurve" smooth="yes"/>
      <point x="530" y="0" type="line"/>
      <point x="716" y="0" type="line"/>
      <point x="285" y="448" type="line" smooth="yes"/>
      <point x="260" y="475"/>
      <point x="239" y="500"/>
      <point x="226" y="529"/>
      <point x="226" y="545" type="qcurve" smooth="yes"/>
      <point x="226" y="569"/>
      <point x="248" y="601"/>
      <point x="278" y="614"/>
      <point x="296" y="614" type="qcurve" smooth="yes"/>
      <point x="318" y="614"/>
      <point x="348" y="598"/>
      <point x="366" y="569"/>
      <point x="366" y="545" type="qcurve" smooth="yes"/>
      <point x="366" y="521"/>
      <point x="327" y="475"/>
      <point x="255" y="429"/>
      <point x="233" y="415" type="qcurve" smooth="yes"/>
      <point x="147" y="361"/>
      <point x="71" y="293"/>
      <point x="32" y="220"/>
      <point x="32" y="176" type="qcurve" smooth="yes"/>
      <point x="32" y="120"/>
      <point x="96" y="32"/>
      <point x="223" y="-12"/>
    </contour>
  </outline>
</glyph>
<glyph name="hyphen" format="2">
  <advance width="460"/>
  <unicode hex="002D"/>
  <outline>
    <contour>
      <point x="50" y="200" type="line"/>
      <point x="410" y="200" type="line"/>
      <point x="410" y="320" type="line"/>
      <point x="50" y="320" type="line"/>
    </contour>
  </outline>
</glyph>
<glyph name="period" format="2">
  <advance width="320"/>
  <unicode hex="002E"/>
  <outline>
    <contour>
      <point x="160" y="-6" type="qcurve" smooth="yes"/>
      <point x="200" y="-6"/>
      <point x="255" y="49"/>
      <point x="255" y="89" type="qcurve" smooth="yes"/>
      <point x="255" y="129"/>
      <point x="200" y="184"/>
      <point x="160" y="184" type="qcurve" smooth="yes"/>
      <point x="120" y="184"/>
      <point x="65" y="129"/>
      <point x="65" y="89" type="qcurve" smooth="yes"/>
      <point x="65" y="49"/>
      <point x="120" y="-6"/>
    </contour>
  </outline>
</glyph>
<glyph name="three" format="2">
  <advance width="616"/>
  <unicode hex="0033"/>
  <outline>
    <contour>
      <point x="322" y="-12" type="qcurve" smooth="yes"/>
      <point x="402" y="-12"/>
      <point x="515" y="46"/>
      <point x="572" y="144"/>
      <point x="572" y="200" type="qcurve" smooth="yes"/>
      <point x="572" y="248"/>
      <point x="532" y="324"/>
      <point x="459" y="374"/>
      <point x="413" y="378" type="qcurve"/>
      <point x="459" y="386"/>
      <point x="523" y="432"/>
      <point x="557" y="495"/>
      <point x="557" y="539" type="qcurve" smooth="yes"/>
      <point x="557" y="591"/>
      <point x="495" y="682"/>
      <point x="388" y="732"/>
      <point x="312" y="732" type="qcurve" smooth="yes"/>
      <point x="232" y="732"/>
      <point x="108" y="669"/>
      <point x="44" y="564"/>
      <point x="44" y="510" type="qcurve"/>
      <point x="180" y="510" type="line"/>
      <point x="180" y="538"/>
      <point x="214" y="588"/>
      <point x="268" y="612"/>
      <point x="300" y="612" type="qcurve" smooth="yes"/>
      <point x="340" y="612"/>
      <point x="382" y="590"/>
      <point x="407" y="550"/>
      <point x="407" y="522" type="qcurve" smooth="yes"/>
      <point x="407" y="494"/>
      <point x="378" y="450"/>
      <point x="329" y="428"/>
      <point x="271" y="428" type="qcurve" smooth="yes"/>
      <point x="219" y="428" type="line"/>
      <point x="219" y="308" type="line"/>
      <point x="275" y="308" type="line" smooth="yes"/>
      <point x="323" y="308"/>
      <point x="385" y="290"/>
      <point x="422" y="244"/>
      <point x="422" y="208" type="qcurve" smooth="yes"/>
      <point x="422" y="176"/>
      <point x="398" y="134"/>
      <point x="351" y="108"/>
      <point x="311" y="108" type="qcurve" smooth="yes"/>
      <point x="273" y="108"/>
      <point x="219" y="128"/>
      <point x="180" y="177"/>
      <point x="180" y="210" type="qcurve"/>
      <point x="44" y="210" type="line"/>
      <point x="44" y="156"/>
      <point x="112" y="46"/>
      <point x="242" y="-12"/>
    </contour>
  </outline>
</glyph>
<glyph name="four" format="2">
  <advance width="656"/>
  <unicode hex="0034"/>
  <outline>
    <contour>
      <point x="372" y="0" type="line"/>
      <point x="516" y="0" type="line"/>
      <point x="516" y="164" type="line"/>
      <point x="630" y="164" type="line"/>
      <point x="630" y="284" type="line"/>
      <point x="516" y="284" type="line"/>
      <point x="516" y="720" type="line"/>
      <point x="344" y="720" type="line"/>
      <point x="8" y="220" type="line"/>
      <point x="8" y="164" type="line"/>
      <point x="372" y="164" type="line"/>
    </contour>
    <contour>
      <point x="184" y="284" type="line"/>
      <point x="372" y="570" type="line"/>
      <point x="372" y="284" type="line"/>
    </contour>
  </outline>
</glyph>
<glyph name="six" format="2">
  <advance width="626"/>
  <unicode hex="0036"/>
  <outline>
    <contour>
      <point x="329" y="-10" type="qcurve" smooth="yes"/>
      <point x="403" y="-10"/>
      <point x="520" y="50"/>
      <point x="586" y="157"/>
      <point x="586" y="226" type="qcurve" smooth="yes"/>
      <point x="586" y="295"/>
      <point x="526" y="402"/>
      <point x="429" y="462"/>
      <point x="360" y="462" type="qcurve" smooth="yes"/>
      <point x="320" y="462"/>
      <point x="260" y="444"/>
      <point x="206" y="398"/>
      <point x="194" y="372" type="qcurve"/>
      <point x="194" y="402" type="line" smooth="yes"/>
      <point x="194" y="474"/>
      <point x="226" y="562"/>
      <point x="288" y="606"/>
      <point x="328" y="606" type="qcurve" smooth="yes"/>
      <point x="356" y="606"/>
      <point x="400" y="588"/>
      <point x="430" y="546"/>
      <point x="430" y="510" type="qcurve"/>
      <point x="574" y="510" type="line"/>
      <point x="574" y="576"/>
      <point x="514" y="676"/>
      <point x="400" y="732"/>
      <point x="324" y="732" type="qcurve" smooth="yes"/>
      <point x="234" y="732"/>
      <point x="108" y="646"/>
      <point x="44" y="484"/>
      <point x="44" y="364" type="qcurve" smooth="yes"/>
      <point x="44" y="356" type="line" smooth="yes"/>
      <point x="44" y="220"/>
      <point x="106" y="73"/>
      <point x="233" y="-10"/>
    </contour>
    <contour>
      <point x="322" y="118" type="qcurve" smooth="yes"/>
      <point x="286" y="118"/>
      <point x="229" y="146"/>
      <point x="202" y="196"/>
      <point x="202" y="228" type="qcurve" smooth="yes"/>
      <point x="202" y="260"/>
      <point x="229" y="310"/>
      <point x="286" y="338"/>
      <point x="322" y="338" type="qcurve" smooth="yes"/>
      <point x="358" y="338"/>
      <point x="413" y="310"/>
      <point x="442" y="260"/>
      <point x="442" y="228" type="qcurve" smooth="yes"/>
      <point x="442" y="196"/>
      <point x="413" y="146"/>
      <point x="358" y="118"/>
    </contour>
  </outline>
</glyph>
<glyph name="eight" format="2">
  <advance width="620"/>
  <unicode hex="0038"/>
  <outline>
    <contour>
      <point x="310" y="-12" type="qcurve" smooth="yes"/>
      <point x="390" y="-12"/>
      <point x="518" y="43"/>
      <point x="582" y="140"/>
      <point x="582" y="200" type="qcurve" smooth="yes"/>
      <point x="582" y="242"/>
      <point x="550" y="310"/>
      <point x="488" y="356"/>
      <point x="442" y="370" type="qcurve"/>
      <point x="484" y="380"/>
      <point x="540" y="424"/>
      <point x="564" y="482"/>
      <point x="564" y="526" type="qcurve" smooth="yes"/>
      <point x="564" y="586"/>
      <point x="496" y="680"/>
      <point x="382" y="732"/>
      <point x="310" y="732" type="qcurve" smooth="yes"/>
      <point x="238" y="732"/>
      <point x="124" y="680"/>
      <point x="56" y="586"/>
      <point x="56" y="526" type="qcurve" smooth="yes"/>
      <point x="56" y="482"/>
      <point x="87" y="423"/>
      <point x="136" y="380"/>
      <point x="178" y="370" type="qcurve"/>
      <point x="132" y="356"/>
      <point x="70" y="310"/>
      <point x="38" y="242"/>
      <point x="38" y="200" type="qcurve" smooth="yes"/>
      <point x="38" y="140"/>
      <point x="102" y="43"/>
      <point x="230" y="-12"/>
    </contour>
    <contour>
      <point x="310" y="112" type="qcurve" smooth="yes"/>
      <point x="270" y="112"/>
      <point x="220" y="134"/>
      <point x="188" y="175"/>
      <point x="188" y="207" type="qcurve" smooth="yes"/>
      <point x="188" y="239"/>
      <point x="220" y="280"/>
      <point x="270" y="302"/>
      <point x="310" y="302" type="qcurve" smooth="yes"/>
      <point x="350" y="302"/>
      <point x="400" y="280"/>
      <point x="432" y="239"/>
      <point x="432" y="207" type="qcurve" smooth="yes"/>
      <point x="432" y="175"/>
      <point x="400" y="134"/>
      <point x="350" y="112"/>
    </contour>
    <contour>
      <point x="310" y="424" type="qcurve" smooth="yes"/>
      <point x="278" y="424"/>
      <point x="232" y="448"/>
      <point x="206" y="488"/>
      <point x="206" y="516" type="qcurve" smooth="yes"/>
      <point x="206" y="544"/>
      <point x="232" y="584"/>
      <point x="278" y="608"/>
      <point x="310" y="608" type="qcurve" smooth="yes"/>
      <point x="342" y="608"/>
      <point x="388" y="584"/>
      <point x="414" y="544"/>
      <point x="414" y="516" type="qcurve" smooth="yes"/>
      <point x="414" y="488"/>
      <point x="388" y="448"/>
      <point x="342" y="424"/>
    </contour>
  </outline>
</glyph>
<glyph name="at" format="2">
  <advance width="960"/>
  <unicode hex="0040"/>
  <outline>
    <contour>
      <point x="511" y="-124" type="qcurve" smooth="yes"/>
      <point x="670" y="-124" type="line"/>
      <point x="670" y="-16" type="line"/>
      <point x="531" y="-16" type="line" smooth="yes"/>
      <point x="399" y="-16"/>
      <point x="255" y="48"/>
      <point x="166" y="194"/>
      <point x="166" y="296" type="qcurve" smooth="yes"/>
      <point x="166" y="390"/>
      <point x="238" y="530"/>
      <point x="383" y="620"/>
      <point x="489" y="620" type="qcurve" smooth="yes"/>
      <point x="583" y="620"/>
      <point x="722" y="553"/>
      <point x="796" y="425"/>
      <point x="796" y="336" type="qcurve" smooth="yes"/>
      <point x="796" y="288"/>
      <point x="783" y="226"/>
      <point x="755" y="198"/>
      <point x="735" y="198" type="qcurve" smooth="yes"/>
      <point x="711" y="198"/>
      <point x="687" y="226"/>
      <point x="687" y="260" type="qcurve" smooth="yes"/>
      <point x="687" y="500" type="line"/>
      <point x="545" y="500" type="line"/>
      <point x="545" y="443" type="line"/>
      <point x="531" y="476"/>
      <point x="472" y="514"/>
      <point x="435" y="514" type="qcurve" smooth="yes"/>
      <point x="359" y="514"/>
      <point x="267" y="395"/>
      <point x="267" y="296" type="qcurve" smooth="yes"/>
      <point x="267" y="194"/>
      <point x="367" y="78"/>
      <point x="453" y="78" type="qcurve" smooth="yes"/>
      <point x="512" y="78"/>
      <point x="575" y="140"/>
      <point x="581" y="178" type="qcurve"/>
      <point x="591" y="138"/>
      <point x="665" y="84"/>
      <point x="721" y="84" type="qcurve" smooth="yes"/>
      <point x="781" y="84"/>
      <point x="870" y="146"/>
      <point x="916" y="263"/>
      <point x="916" y="336" type="qcurve" smooth="yes"/>
      <point x="916" y="457"/>
      <point x="812" y="636"/>
      <point x="619" y="732"/>
      <point x="489" y="732" type="qcurve" smooth="yes"/>
      <point x="359" y="732"/>
      <point x="157" y="621"/>
      <point x="46" y="430"/>
      <point x="46" y="296" type="qcurve" smooth="yes"/>
      <point x="46" y="156"/>
      <point x="166" y="-36"/>
      <point x="375" y="-124"/>
    </contour>
    <contour>
      <point x="477" y="192" type="qcurve" smooth="yes"/>
      <point x="442" y="192"/>
      <point x="409" y="242"/>
      <point x="409" y="296" type="qcurve" smooth="yes"/>
      <point x="409" y="350"/>
      <point x="442" y="400"/>
      <point x="477" y="400" type="qcurve" smooth="yes"/>
      <point x="512" y="400"/>
      <point x="545" y="350"/>
      <point x="545" y="296" type="qcurve" smooth="yes"/>
      <point x="545" y="242"/>
      <point x="512" y="192"/>
    </contour>
  </outline>
</glyph>
<glyph name="E" format="2">
  <advance width="568"/>
  <unicode hex="0045"/>
  <anchor x="290" y="0" name="bottom"/>
  <anchor x="512" y="0" name="ogonek"/>
  <anchor x="290" y="720" name="top"/>
  <outline>
    <contour>
      <point x="58" y="0" type="line"/>
      <point x="524" y="0" type="line"/>
      <point x="524" y="126" type="line"/>
      <point x="208" y="126" type="line"/>
      <point x="208" y="302" type="line"/>
      <point x="492" y="302" type="line"/>
      <point x="492" y="426" type="line"/>
      <point x="208" y="426" type="line"/>
      <point x="208" y="594" type="line"/>
      <point x="524" y="594" type="line"/>
      <point x="524" y="720" type="line"/>
      <point x="58" y="720" type="line"/>
    </contour>
  </outline>
</glyph>
<glyph name="F" format="2">
  <advance width="554"/>
  <unicode hex="0046"/>
  <anchor x="292" y="720" name="top"/>
  <outline>
    <contour>
      <point x="58" y="0" type="line"/>
      <point x="208" y="0" type="line"/>
      <point x="208" y="592" type="line"/>
      <point x="514" y="592" type="line"/>
      <point x="514" y="720" type="line"/>
      <point x="58" y="720" type="line"/>
    </contour>
    <contour>
      <point x="208" y="290" type="line"/>
      <point x="494" y="290" type="line"/>
      <point x="494" y="418" type="line"/>
      <point x="208" y="418" type="line"/>
    </contour>
  </outline>
</glyph>
<glyph name="G" format="2">
  <advance width="740"/>
  <unicode hex="0047"/>
  <anchor x="381" y="0" name="bottom"/>
  <anchor x="550" y="210" name="center"/>
  <anchor x="381" y="720" name="top"/>
  <outline>
    <contour>
      <point x="385" y="-12" type="qcurve" smooth="yes"/>
      <point x="481" y="-12"/>
      <point x="629" y="74"/>
      <point x="700" y="230"/>
      <point x="700" y="350" type="qcurve"/>
      <point x="700" y="380"/>
      <point x="696" y="400" type="qcurve"/>
      <point x="370" y="400" type="line"/>
      <point x="370" y="280" type="line"/>
      <point x="560" y="280" type="line"/>
      <point x="560" y="240"/>
      <point x="524" y="162"/>
      <point x="449" y="112"/>
      <point x="389" y="112" type="qcurve" smooth="yes"/>
      <point x="329" y="112"/>
      <point x="245" y="168"/>
      <point x="194" y="278"/>
      <point x="194" y="360" type="qcurve" smooth="yes"/>
      <point x="194" y="442"/>
      <point x="245" y="552"/>
      <point x="331" y="608"/>
      <point x="391" y="608" type="qcurve" smooth="yes"/>
      <point x="443" y="608"/>
      <point x="505" y="580"/>
      <point x="541" y="534"/>
      <point x="541" y="510" type="qcurve"/>
      <point x="685" y="510" type="line"/>
      <point x="685" y="566"/>
      <point x="605" y="676"/>
      <point x="473" y="732"/>
      <point x="387" y="732" type="qcurve" smooth="yes"/>
      <point x="285" y="732"/>
      <point x="131" y="644"/>
      <point x="40" y="480"/>
      <point x="40" y="360" type="qcurve" smooth="yes"/>
      <point x="40" y="240"/>
      <point x="129" y="76"/>
      <point x="283" y="-12"/>
    </contour>
  </outline>
</glyph>
<glyph name="H" format="2">
  <advance width="680"/>
  <unicode hex="0048"/>
  <anchor x="340" y="0" name="bottom"/>
  <anchor x="340" y="720" name="top"/>
  <outline>
    <contour>
      <point x="58" y="0" type="line"/>
      <point x="208" y="0" type="line"/>
      <point x="208" y="305" type="line"/>
      <point x="472" y="305" type="line"/>
      <point x="472" y="0" type="line"/>
      <point x="622" y="0" type="line"/>
      <point x="622" y="720" type="line"/>
      <point x="472" y="720" type="line"/>
      <point x="472" y="435" type="line"/>
      <point x="208" y="435" type="line"/>
      <point x="208" y="720" type="line"/>
      <point x="58" y="720" type="line"/>
    </contour>
  </outline>
</glyph>
<glyph name="N" format="2">
  <advance width="694"/>
  <unicode hex="004E"/>
  <anchor x="348" y="0" name="bottom"/>
  <anchor x="348" y="720" name="top"/>
  <outline>
    <contour>
      <point x="58" y="0" type="line"/>
      <point x="202" y="0" type="line"/>
      <point x="202" y="490" type="line"/>
      <point x="490" y="0" type="line"/>
      <point x="636" y="0" type="line"/>
      <point x="636" y="720" type="line"/>
      <point x="492" y="720" type="line"/>
      <point x="492" y="230" type="line"/>
      <point x="204" y="720" type="line"/>
      <point x="58" y="720" type="line"/>
    </contour>
  </outline>
</glyph>
<glyph name="O" format="2">
  <advance width="760"/>
  <unicode hex="004F"/>
  <anchor x="380" y="0" name="bottom"/>
  <anchor x="464" y="10" name="ogonek"/>
  <anchor x="380" y="720" name="top"/>
  <anchor x="30" y="720" name="topleft"/>
  <outline>
    <contour>
      <point x="380" y="-12" type="qcurve" smooth="yes"/>
      <point x="480" y="-12"/>
      <point x="632" y="76"/>
      <point x="720" y="240"/>
      <point x="720" y="360" type="qcurve" smooth="yes"/>
      <point x="720" y="480"/>
      <point x="632" y="644"/>
      <point x="480" y="732"/>
      <point x="380" y="732" type="qcurve" smooth="yes"/>
      <point x="280" y="732"/>
      <point x="128" y="644"/>
      <point x="40" y="480"/>
      <point x="40" y="360" type="qcurve" smooth="yes"/>
      <point x="40" y="240"/>
      <point x="128" y="76"/>
      <point x="280" y="-12"/>
    </contour>
    <contour>
      <point x="380" y="116" type="qcurve" smooth="yes"/>
      <point x="320" y="116"/>
      <point x="240" y="172"/>
      <point x="194" y="278"/>
      <point x="194" y="360" type="qcurve" smooth="yes"/>
      <point x="194" y="442"/>
      <point x="240" y="548"/>
      <point x="320" y="604"/>
      <point x="380" y="604" type="qcurve" smooth="yes"/>
      <point x="440" y="604"/>
      <point x="520" y="548"/>
      <point x="566" y="442"/>
      <point x="566" y="360" type="qcurve" smooth="yes"/>
      <point x="566" y="278"/>
      <point x="520" y="172"/>
      <point x="440" y="116"/>
    </contour>
  </outline>
</glyph>
<glyph name="P" format="2">
  <advance width="660"/>
  <unicode hex="0050"/>
  <anchor x="320" y="0" name="bottom"/>
  <anchor x="320" y="720" name="top"/>
  <outline>
    <contour>
      <point x="58" y="0" type="line"/>
      <point x="208" y="0" type="line"/>
      <point x="208" y="264" type="line"/>
      <point x="366" y="264" type="line" smooth="yes"/>
      <point x="446" y="264"/>
      <point x="554" y="310"/>
      <point x="630" y="416"/>
      <point x="630" y="492" type="qcurve" smooth="yes"/>
      <point x="630" y="568"/>
      <point x="554" y="675"/>
      <point x="446" y="720"/>
      <point x="366" y="720" type="qcurve" smooth="yes"/>
      <point x="58" y="720" type="line"/>
    </contour>
    <contour>
      <point x="208" y="388" type="line"/>
      <point x="208" y="596" type="line"/>
      <point x="350" y="596" type="line" smooth="yes"/>
      <point x="398" y="596"/>
      <point x="452" y="570"/>
      <point x="480" y="524"/>
      <point x="480" y="492" type="qcurve" smooth="yes"/>
      <point x="480" y="460"/>
      <point x="452" y="414"/>
      <point x="398" y="388"/>
      <point x="350" y="388" type="qcurve" smooth="yes"/>
    </contour>
  </outline>
</glyph>
<glyph name="S" format="2">
  <advance width="640"/>
  <unicode hex="0053"/>
  <anchor x="315" y="0" name="bottom"/>
  <anchor x="315" y="720" name="top"/>
  <outline>
    <contour>
      <point x="319" y="-10" type="qcurve" smooth="yes"/>
      <point x="397" y="-10"/>
      <point x="527" y="40"/>
      <point x="598" y="149"/>
      <point x="598" y="221" type="qcurve" smooth="yes"/>
      <point x="598" y="289"/>
      <point x="536" y="379"/>
      <point x="442" y="419"/>
      <point x="394" y="427" type="qcurve" smooth="yes"/>
      <point x="286" y="444" type="line" smooth="yes"/>
      <point x="248" y="450"/>
      <point x="215" y="466"/>
      <point x="194" y="500"/>
      <point x="194" y="522" type="qcurve" smooth="yes"/>
      <point x="194" y="550"/>
      <point x="228" y="590"/>
      <point x="284" y="608"/>
      <point x="314" y="608" type="qcurve" smooth="yes"/>
      <point x="344" y="608"/>
      <point x="394" y="592"/>
      <point x="430" y="549"/>
      <point x="430" y="510" type="qcurve"/>
      <point x="576" y="510" type="line"/>
      <point x="574" y="586"/>
      <point x="494" y="686"/>
      <point x="378" y="730"/>
      <point x="314" y="730" type="qcurve" smooth="yes"/>
      <point x="237" y="730"/>
      <point x="113" y="676"/>
      <point x="42" y="573"/>
      <point x="42" y="503" type="qcurve" smooth="yes"/>
      <point x="42" y="445"/>
      <point x="94" y="355"/>
      <point x="188" y="309"/>
      <point x="244" y="300" type="qcurve" smooth="yes"/>
      <point x="352" y="283" type="line" smooth="yes"/>
      <point x="390" y="277"/>
      <point x="428" y="257"/>
      <point x="446" y="225"/>
      <point x="446" y="201" type="qcurve" smooth="yes"/>
      <point x="446" y="173"/>
      <point x="410" y="129"/>
      <point x="355" y="112"/>
      <point x="319" y="112" type="qcurve" smooth="yes"/>
      <point x="283" y="112"/>
      <point x="221" y="134"/>
      <point x="188" y="180"/>
      <point x="188" y="210" type="qcurve"/>
      <point x="42" y="210" type="line"/>
      <point x="44" y="130"/>
      <point x="128" y="30"/>
      <point x="243" y="-10"/>
    </contour>
  </outline>
</glyph>
<glyph name="U" format="2">
  <advance width="680"/>
  <unicode hex="0055"/>
  <anchor x="340" y="0" name="bottom"/>
  <anchor x="420" y="0" name="ogonek"/>
  <anchor x="340" y="720" name="top"/>
  <outline>
    <contour>
      <point x="340" y="-10" type="qcurve"/>
      <point x="400" y="-10"/>
      <point x="528" y="33"/>
      <point x="626" y="151"/>
      <point x="626" y="285" type="qcurve" smooth="yes"/>
      <point x="626" y="720" type="line"/>
      <point x="476" y="720" type="line"/>
      <point x="476" y="299" type="line" smooth="yes"/>
      <point x="476" y="209"/>
      <point x="433" y="149"/>
      <point x="376" y="124"/>
      <point x="340" y="124" type="qcurve" smooth="yes"/>
      <point x="304" y="124"/>
      <point x="247" y="149"/>
      <point x="204" y="209"/>
      <point x="204" y="299" type="qcurve" smooth="yes"/>
      <point x="204" y="720" type="line"/>
      <point x="54" y="720" type="line"/>
      <point x="54" y="285" type="line" smooth="yes"/>
      <point x="54" y="151"/>
      <point x="152" y="33"/>
      <point x="280" y="-10"/>
    </contour>
  </outline>
</glyph>
<glyph name="X" format="2">
  <advance width="660"/>
  <unicode hex="0058"/>
  <anchor x="326" y="0" name="bottom"/>
  <anchor x="326" y="720" name="top"/>
  <outline>
    <contour>
      <point x="16" y="0" type="line"/>
      <point x="176" y="0" type="line"/>
      <point x="324" y="276" type="line"/>
      <point x="472" y="0" type="line"/>
      <point x="644" y="0" type="line"/>
      <point x="436" y="372" type="line"/>
      <point x="635" y="720" type="line"/>
      <point x="475" y="720" type="line"/>
      <point x="328" y="452" type="line"/>
      <point x="192" y="720" type="line"/>
      <point x="20" y="720" type="line"/>
      <point x="220" y="358" type="line"/>
    </contour>
  </outline>
</glyph>
<glyph name="Y" format="2">
  <advance width="660"/>
  <unicode hex="0059"/>
  <anchor x="330" y="0" name="bottom"/>
  <anchor x="330" y="720" name="top"/>
  <outline>
    <contour>
      <point x="256" y="0" type="line"/>
      <point x="406" y="0" type="line"/>
      <point x="406" y="287" type="line"/>
      <point x="644" y="720" type="line"/>
      <point x="494" y="720" type="line"/>
      <point x="338" y="420" type="line"/>
      <point x="184" y="720" type="line"/>
      <point x="16" y="720" type="line"/>
      <point x="256" y="287" type="line"/>
    </contour>
  </outline>
</glyph>
<glyph name="Z" format="2">
  <advance width="630"/>
  <unicode hex="005A"/>
  <anchor x="315" y="0" name="bottom"/>
  <anchor x="315" y="720" name="top"/>
  <outline>
    <contour>
      <point x="40" y="0" type="line"/>
      <point x="590" y="0" type="line"/>
      <point x="590" y="128" type="line"/>
      <point x="240" y="128" type="line"/>
      <point x="590" y="652" type="line"/>
      <point x="590" y="720" type="line"/>
      <point x="40" y="720" type="line"/>
      <point x="40" y="592" type="line"/>
      <point x="390" y="592" type="line"/>
      <point x="40" y="68" type="line"/>
    </contour>
  </outline>
</glyph>
<glyph name="bracketleft" format="2">
  <advance width="400"/>
  <unicode hex="005B"/>
  <outline>
    <contour>
      <point x="100" y="-240" type="line"/>
      <point x="380" y="-240" type="line"/>
      <point x="380" y="-120" type="line"/>
      <point x="242" y="-120" type="line"/>
      <point x="242" y="720" type="line"/>
      <point x="380" y="720" type="line"/>
      <point x="380" y="830" type="line"/>
      <point x="100" y="830" type="line"/>
    </contour>
  </outline>
</glyph>
<glyph name="asciicircum" format="2">
  <advance width="600"/>
  <unicode hex="005E"/>
  <outline>
    <contour>
      <point x="48" y="401" type="line"/>
      <point x="209" y="401" type="line"/>
      <point x="299" y="577" type="line"/>
      <point x="389" y="401" type="line"/>
      <point x="552" y="401" type="line"/>
      <point x="373" y="720" type="line"/>
      <point x="228" y="720" type="line"/>
    </contour>
  </outline>
</glyph>
<glyph name="a" format="2">
  <advance width="520"/>
  <unicode hex="0061"/>
  <anchor x="249" y="0" name="bottom"/>
  <anchor x="464" y="0" name="ogonek"/>
  <anchor x="249" y="500" name="top"/>
  <outline>
    <contour>
      <point x="184" y="-8" type="qcurve" smooth="yes"/>
      <point x="220" y="-8"/>
      <point x="269" y="6"/>
      <point x="316" y="40"/>
      <point x="332" y="60" type="qcurve"/>
      <point x="332" y="24"/>
      <point x="344" y="0" type="qcurve"/>
      <point x="480" y="0" type="line"/>
      <point x="466" y="40"/>
      <point x="466" y="86" type="qcurve" smooth="yes"/>
      <point x="466" y="300" type="line" smooth="yes"/>
      <point x="466" y="372"/>
      <point x="418" y="462"/>
      <point x="322" y="512"/>
      <point x="254" y="512" type="qcurve" smooth="yes"/>
      <point x="190" y="512"/>
      <point x="96" y="463"/>
      <point x="48" y="384"/>
      <point x="48" y="340" type="qcurve"/>
      <point x="182" y="340" type="line"/>
      <point x="182" y="360"/>
      <point x="199" y="389"/>
      <point x="232" y="402"/>
      <point x="254" y="402" type="qcurve" smooth="yes"/>
      <point x="274" y="402"/>
      <point x="308" y="388"/>
      <point x="332" y="352"/>
      <point x="332" y="320" type="qcurve" smooth="yes"/>
      <point x="332" y="196" type="line" smooth="yes"/>
      <point x="332" y="164"/>
      <point x="298" y="118"/>
      <point x="253" y="100"/>
      <point x="225" y="100" type="qcurve" smooth="yes"/>
      <point x="201" y="100"/>
      <point x="171" y="114"/>
      <point x="160" y="134"/>
      <point x="160" y="148" type="qcurve" smooth="yes"/>
      <point x="160" y="168"/>
      <point x="190" y="197"/>
      <point x="242" y="204"/>
      <point x="296" y="204" type="qcurve" smooth="yes"/>
      <point x="358" y="204" type="line"/>
      <point x="358" y="304" type="line"/>
      <point x="282" y="304" type="line" smooth="yes"/>
      <point x="190" y="304"/>
      <point x="88" y="274"/>
      <point x="26" y="198"/>
      <point x="26" y="138" type="qcurve" smooth="yes"/>
      <point x="26" y="90"/>
      <point x="72" y="22"/>
      <point x="144" y="-8"/>
    </contour>
  </outline>
</glyph>
<glyph name="e" format="2">
  <advance width="530"/>
  <unicode hex="0065"/>
  <anchor x="271" y="0" name="bottom"/>
  <anchor x="343" y="0" name="ogonek"/>
  <anchor x="271" y="500" name="top"/>
  <outline>
    <contour>
      <point x="279" y="-12" type="qcurve" smooth="yes"/>
      <point x="347" y="-12"/>
      <point x="447" y="38"/>
      <point x="502" y="124"/>
      <point x="504" y="160" type="qcurve"/>
      <point x="364" y="160" type="line"/>
      <point x="364" y="144"/>
      <point x="344" y="112"/>
      <point x="307" y="94"/>
      <point x="277" y="94" type="qcurve" smooth="yes"/>
      <point x="242" y="94"/>
      <point x="193" y="128"/>
      <point x="168" y="191"/>
      <point x="168" y="241" type="qcurve" smooth="yes"/>
      <point x="168" y="261" type="line" smooth="yes"/>
      <point x="168" y="313"/>
      <point x="192" y="377"/>
      <point x="240" y="412"/>
      <point x="276" y="412" type="qcurve" smooth="yes"/>
      <point x="304" y="412"/>
      <point x="344" y="390"/>
      <point x="368" y="344"/>
      <point x="368" y="300" type="qcurve"/>
      <point x="115" y="300" type="line"/>
      <point x="115" y="212" type="line"/>
      <point x="506" y="212" type="line"/>
      <point x="506" y="250" type="line" smooth="yes"/>
      <point x="506" y="326"/>
      <point x="454" y="444"/>
      <point x="346" y="512"/>
      <point x="272" y="512" type="qcurve" smooth="yes"/>
      <point x="198" y="512"/>
      <point x="85" y="444"/>
      <point x="24" y="326"/>
      <point x="24" y="250" type="qcurve" smooth="yes"/>
      <point x="24" y="174"/>
      <point x="87" y="54"/>
      <point x="205" y="-12"/>
    </contour>
  </outline>
</glyph>
<glyph name="h" format="2">
  <advance width="560"/>
  <unicode hex="0068"/>
  <anchor x="305" y="0" name="bottom"/>
  <anchor x="420" y="240" name="center"/>
  <anchor x="128" y="720" name="top"/>
  <outline>
    <contour>
      <point x="56" y="0" type="line"/>
      <point x="198" y="0" type="line"/>
      <point x="198" y="260" type="line" smooth="yes"/>
      <point x="198" y="312"/>
      <point x="226" y="362"/>
      <point x="270" y="382"/>
      <point x="294" y="382" type="qcurve" smooth="yes"/>
      <point x="320" y="382"/>
      <point x="351" y="362"/>
      <point x="364" y="328"/>
      <point x="364" y="300" type="qcurve" smooth="yes"/>
      <point x="364" y="0" type="line"/>
      <point x="506" y="0" type="line"/>
      <point x="506" y="314" type="line" smooth="yes"/>
      <point x="506" y="386"/>
      <point x="468" y="466"/>
      <point x="400" y="510"/>
      <point x="342" y="510" type="qcurve" smooth="yes"/>
      <point x="312" y="510"/>
      <point x="252" y="486"/>
      <point x="210" y="442"/>
      <point x="198" y="416" type="qcurve"/>
      <point x="198" y="720" type="line"/>
      <point x="56" y="720" type="line"/>
    </contour>
  </outline>
</glyph>
<glyph name="l" format="2">
  <advance width="256"/>
  <unicode hex="006C"/>
  <anchor x="128" y="0" name="bottom"/>
  <anchor x="127" y="720" name="top"/>
  <anchor x="210" y="720" name="topright"/>
  <outline>
    <contour>
      <point x="57" y="0" type="line"/>
      <point x="199" y="0" type="line"/>
      <point x="199" y="720" type="line"/>
      <point x="57" y="720" type="line"/>
    </contour>
  </outline>
</glyph>
<glyph name="m" format="2">
  <advance width="840"/>
  <unicode hex="006D"/>
  <anchor x="420" y="0" name="bottom"/>
  <anchor x="420" y="500" name="top"/>
  <outline>
    <contour>
      <point x="56" y="0" type="line"/>
      <point x="198" y="0" type="line"/>
      <point x="198" y="280" type="line" smooth="yes"/>
      <point x="198" y="329"/>
      <point x="249" y="387"/>
      <point x="291" y="387" type="qcurve" smooth="yes"/>
      <point x="322" y="387"/>
      <point x="350" y="346"/>
      <point x="350" y="306" type="qcurve" smooth="yes"/>
      <point x="350" y="0" type="line"/>
      <point x="492" y="0" type="line"/>
      <point x="492" y="280" type="line" smooth="yes"/>
      <point x="492" y="329"/>
      <point x="541" y="387"/>
      <point x="583" y="387" type="qcurve" smooth="yes"/>
      <point x="615" y="387"/>
      <point x="644" y="346"/>
      <point x="644" y="306" type="qcurve" smooth="yes"/>
      <point x="644" y="0" type="line"/>
      <point x="786" y="0" type="line"/>
      <point x="786" y="323" type="line" smooth="yes"/>
      <point x="786" y="415"/>
      <point x="709" y="510"/>
      <point x="627" y="510" type="qcurve" smooth="yes"/>
      <point x="577" y="510"/>
      <point x="497" y="458"/>
      <point x="473" y="406" type="qcurve"/>
      <point x="465" y="458"/>
      <point x="397" y="510"/>
      <point x="344" y="510" type="qcurve" smooth="yes"/>
      <point x="292" y="510"/>
      <point x="214" y="452"/>
      <point x="198" y="408" type="qcurve"/>
      <point x="198" y="500" type="line"/>
      <point x="56" y="500" type="line"/>
    </contour>
  </outline>
</glyph>
<glyph name="s" format="2">
  <advance width="500"/>
  <unicode hex="0073"/>
  <anchor x="245" y="0" name="bottom"/>
  <anchor x="245" y="500" name="top"/>
  <outline>
    <contour>
      <point x="252" y="-12" type="qcurve" smooth="yes"/>
      <point x="312" y="-12"/>
      <point x="408" y="24"/>
      <point x="462" y="98"/>
      <point x="462" y="150" type="qcurve" smooth="yes"/>
      <point x="462" y="194"/>
      <point x="422" y="260"/>
      <point x="347" y="296"/>
      <point x="295" y="305" type="qcurve" smooth="yes"/>
      <point x="237" y="315" type="line" smooth="yes"/>
      <point x="211" y="319"/>
      <point x="193" y="329"/>
      <point x="180" y="346"/>
      <point x="180" y="360" type="qcurve" smooth="yes"/>
      <point x="180" y="376"/>
      <point x="196" y="396"/>
      <point x="224" y="408"/>
      <point x="244" y="408" type="qcurve" smooth="yes"/>
      <point x="268" y="408"/>
      <point x="299" y="391"/>
      <point x="315" y="360"/>
      <point x="315" y="340" type="qcurve"/>
      <point x="453" y="340" type="line"/>
      <point x="449" y="392"/>
      <point x="397" y="470"/>
      <point x="308" y="512"/>
      <point x="244" y="512" type="qcurve" smooth="yes"/>
      <point x="180" y="512"/>
      <point x="86" y="464"/>
      <point x="40" y="390"/>
      <point x="40" y="344" type="qcurve" smooth="yes"/>
      <point x="40" y="300"/>
      <point x="78" y="240"/>
      <point x="144" y="207"/>
      <point x="206" y="196" type="qcurve" smooth="yes"/>
      <point x="264" y="186" type="line" smooth="yes"/>
      <point x="286" y="182"/>
      <point x="308" y="172"/>
      <point x="322" y="154"/>
      <point x="322" y="140" type="qcurve" smooth="yes"/>
      <point x="322" y="124"/>
      <point x="304" y="102"/>
      <point x="275" y="92"/>
      <point x="251" y="92" type="qcurve" smooth="yes"/>
      <point x="227" y="92"/>
      <point x="195" y="104"/>
      <point x="176" y="136"/>
      <point x="176" y="160" type="qcurve"/>
      <point x="40" y="160" type="line"/>
      <point x="42" y="100"/>
      <point x="98" y="22"/>
      <point x="192" y="-12"/>
    </contour>
  </outline>
</glyph>
<glyph name="t" format="2">
  <advance width="380"/>
  <unicode hex="0074"/>
  <anchor x="226" y="0" name="bottom"/>
  <anchor x="170" y="620" name="top"/>
  <anchor x="276" y="720" name="topright"/>
  <outline>
    <contour>
      <point x="246" y="0" type="qcurve" smooth="yes"/>
      <point x="344" y="0" type="line"/>
      <point x="344" y="114" type="line"/>
      <point x="286" y="114" type="line" smooth="yes"/>
      <point x="262" y="114"/>
      <point x="238" y="138"/>
      <point x="238" y="162" type="qcurve" smooth="yes"/>
      <point x="238" y="380" type="line"/>
      <point x="344" y="380" type="line"/>
      <point x="344" y="500" type="line"/>
      <point x="238" y="500" type="line"/>
      <point x="238" y="620" type="line"/>
      <point x="98" y="620" type="line"/>
      <point x="98" y="500" type="line"/>
      <point x="20" y="500" type="line"/>
      <point x="20" y="380" type="line"/>
      <point x="98" y="380" type="line"/>
      <point x="98" y="140" type="line" smooth="yes"/>
      <point x="98" y="68"/>
      <point x="172" y="0"/>
    </contour>
  </outline>
</glyph>
<glyph name="x" format="2">
  <advance width="540"/>
  <unicode hex="0078"/>
  <anchor x="272" y="0" name="bottom"/>
  <anchor x="272" y="500" name="top"/>
  <outline>
    <contour>
      <point x="16" y="0" type="line"/>
      <point x="162" y="0" type="line"/>
      <point x="262" y="166" type="line"/>
      <point x="356" y="0" type="line"/>
      <point x="524" y="0" type="line"/>
      <point x="368" y="254" type="line"/>
      <point x="512" y="500" type="line"/>
      <point x="366" y="500" type="line"/>
      <point x="278" y="340" type="line"/>
      <point x="192" y="500" type="line"/>
      <point x="24" y="500" type="line"/>
      <point x="170" y="254" type="line"/>
    </contour>
  </outline>
</glyph>
<glyph name="z" format="2">
  <advance width="480"/>
  <unicode hex="007A"/>
  <anchor x="234" y="0" name="bottom"/>
  <anchor x="234" y="500" name="top"/>
  <outline>
    <contour>
      <point x="26" y="0" type="line"/>
      <point x="442" y="0" type="line"/>
      <point x="442" y="120" type="line"/>
      <point x="240" y="120" type="line"/>
      <point x="454" y="472" type="line"/>
      <point x="454" y="500" type="line"/>
      <point x="38" y="500" type="line"/>
      <point x="38" y="380" type="line"/>
      <point x="240" y="380" type="line"/>
      <point x="26" y="28" type="line"/>
    </contour>
  </outline>
</glyph>
<glyph name="asciitilde" format="2">
  <advance width="600"/>
  <unicode hex="007E"/>
  <outline>
    <contour>
      <point x="40" y="216" type="qcurve"/>
      <point x="159" y="216" type="line"/>
      <point x="159" y="258"/>
      <point x="178" y="289"/>
      <point x="208" y="289" type="qcurve" smooth="yes"/>
      <point x="225" y="289"/>
      <point x="248" y="277"/>
      <point x="274" y="260" type="qcurve" smooth="yes"/>
      <point x="308" y="236"/>
      <point x="359" y="216"/>
      <point x="396" y="216" type="qcurve" smooth="yes"/>
      <point x="477" y="216"/>
      <point x="560" y="326"/>
      <point x="560" y="424" type="qcurve"/>
      <point x="441" y="424" type="line"/>
      <point x="441" y="383"/>
      <point x="421" y="351"/>
      <point x="391" y="351" type="qcurve" smooth="yes"/>
      <point x="374" y="351"/>
      <point x="351" y="363"/>
      <point x="325" y="380" type="qcurve" smooth="yes"/>
      <point x="291" y="404"/>
      <point x="241" y="424"/>
      <point x="204" y="424" type="qcurve" smooth="yes"/>
      <point x="123" y="424"/>
      <point x="40" y="314"/>
    </contour>
  </outline>
</glyph>
<glyph name="currency" format="2">
  <advance width="640"/>
  <unicode hex="00A4"/>
  <outline>
    <contour>
      <point x="320" y="110" type="qcurve"/>
      <point x="424" y="110"/>
      <point x="569" y="256"/>
      <point x="569" y="360" type="qcurve"/>
      <point x="569" y="464"/>
      <point x="420" y="610"/>
      <point x="320" y="610" type="qcurve"/>
      <point x="216" y="610"/>
      <point x="69" y="464"/>
      <point x="69" y="360" type="qcurve"/>
      <point x="69" y="256"/>
      <point x="216" y="110"/>
    </contour>
    <contour>
      <point x="106" y="80" type="line"/>
      <point x="199" y="173" type="line"/>
      <point x="132" y="240" type="line"/>
      <point x="39" y="147" type="line"/>
    </contour>
    <contour>
      <point x="319" y="234" type="qcurve"/>
      <point x="265" y="234"/>
      <point x="193" y="306"/>
      <point x="193" y="360" type="qcurve"/>
      <point x="193" y="414"/>
      <point x="265" y="486"/>
      <point x="319" y="486" type="qcurve"/>
      <point x="373" y="486"/>
      <point x="445" y="414"/>
      <point x="445" y="360" type="qcurve"/>
      <point x="445" y="306"/>
      <point x="373" y="234"/>
    </contour>
    <contour>
      <point x="535" y="79" type="line"/>
      <point x="601" y="145" type="line"/>
      <point x="507" y="239" type="line"/>
      <point x="440" y="174" type="line"/>
    </contour>
    <contour>
      <point x="132" y="481" type="line"/>
      <point x="199" y="547" type="line"/>
      <point x="106" y="641" type="line"/>
      <point x="39" y="574" type="line"/>
    </contour>
    <contour>
      <point x="506" y="481" type="line"/>
      <point x="600" y="575" type="line"/>
      <point x="534" y="641" type="line"/>
      <point x="440" y="547" type="line"/>
    </contour>
  </outline>
</glyph>
<glyph name="yen" format="2">
  <advance width="600"/>
  <unicode hex="00A5"/>
  <outline>
    <contour>
      <point x="233" y="0" type="line"/>
      <point x="373" y="0" type="line"/>
      <point x="373" y="280" type="line"/>
      <point x="592" y="720" type="line"/>
      <point x="456" y="720" type="line"/>
      <point x="306" y="413" type="line"/>
      <point x="168" y="720" type="line"/>
      <point x="8" y="720" type="line"/>
      <point x="233" y="280" type="line"/>
    </contour>
    <contour>
      <point x="60" y="120" type="line"/>
      <point x="540" y="120" type="line"/>
      <point x="540" y="200" type="line"/>
      <point x="60" y="200" type="line"/>
    </contour>
    <contour>
      <point x="60" y="260" type="line"/>
      <point x="540" y="260" type="line"/>
      <point x="540" y="340" type="line"/>
      <point x="60" y="340" type="line"/>
    </contour>
  </outline>
</glyph>
<glyph name="section" format="2">
  <advance width="640"/>
  <unicode hex="00A7"/>
  <outline>
    <contour>
      <point x="317" y="-200" type="qcurve" smooth="yes"/>
      <point x="403" y="-200"/>
      <point x="509" y="-136"/>
      <point x="561" y="-36"/>
      <point x="572" y="66"/>
      <point x="572" y="100" type="qcurve" smooth="yes"/>
      <point x="572" y="178" type="line" smooth="yes"/>
      <point x="572" y="268"/>
      <point x="521" y="378"/>
      <point x="425" y="444"/>
      <point x="358" y="454" type="qcurve" smooth="yes"/>
      <point x="318" y="460" type="line" smooth="yes"/>
      <point x="290" y="464"/>
      <point x="244" y="482"/>
      <point x="220" y="514"/>
      <point x="220" y="538" type="qcurve" smooth="yes"/>
      <point x="220" y="564"/>
      <point x="248" y="598"/>
      <point x="290" y="612"/>
      <point x="318" y="612" type="qcurve" smooth="yes"/>
      <point x="342" y="612"/>
      <point x="390" y="594"/>
      <point x="421" y="552"/>
      <point x="421" y="510" type="qcurve"/>
      <point x="567" y="510" type="line"/>
      <point x="567" y="582"/>
      <point x="498" y="684"/>
      <point x="394" y="732"/>
      <point x="324" y="732" type="qcurve" smooth="yes"/>
      <point x="238" y="732"/>
      <point x="132" y="668"/>
      <point x="80" y="568"/>
      <point x="68" y="466"/>
      <point x="68" y="432" type="qcurve" smooth="yes"/>
      <point x="68" y="354" type="line" smooth="yes"/>
      <point x="68" y="264"/>
      <point x="120" y="154"/>
      <point x="216" y="88"/>
      <point x="283" y="78" type="qcurve" smooth="yes"/>
      <point x="323" y="72" type="line" smooth="yes"/>
      <point x="351" y="68"/>
      <point x="396" y="50"/>
      <point x="420" y="18"/>
      <point x="420" y="-6" type="qcurve" smooth="yes"/>
      <point x="420" y="-32"/>
      <point x="393" y="-66"/>
      <point x="351" y="-80"/>
      <point x="323" y="-80" type="qcurve" smooth="yes"/>
      <point x="299" y="-80"/>
      <point x="251" y="-62"/>
      <point x="219" y="-20"/>
      <point x="219" y="22" type="qcurve"/>
      <point x="73" y="22" type="line"/>
      <point x="73" y="-50"/>
      <point x="143" y="-148"/>
      <point x="247" y="-200"/>
    </contour>
    <contour>
      <point x="426" y="180" type="line"/>
      <point x="399" y="195"/>
      <point x="357" y="202" type="qcurve" smooth="yes"/>
      <point x="325" y="207" type="line" smooth="yes"/>
      <point x="281" y="214"/>
      <point x="232" y="248"/>
      <point x="214" y="294"/>
      <point x="214" y="322" type="qcurve" smooth="yes"/>
      <point x="214" y="352" type="line"/>
      <point x="233" y="338"/>
      <point x="284" y="330" type="qcurve" smooth="yes"/>
      <point x="316" y="325" type="line" smooth="yes"/>
      <point x="360" y="318"/>
      <point x="409" y="284"/>
      <point x="426" y="238"/>
      <point x="426" y="210" type="qcurve" smooth="yes"/>
    </contour>
  </outline>
</glyph>
<glyph name="degree" format="2">
  <advance width="440"/>
  <unicode hex="00B0"/>
  <outline>
    <contour>
      <point x="220" y="352" type="qcurve" smooth="yes"/>
      <point x="306" y="352"/>
      <point x="412" y="456"/>
      <point x="412" y="542" type="qcurve" smooth="yes"/>
      <point x="412" y="628"/>
      <point x="306" y="732"/>
      <point x="220" y="732" type="qcurve" smooth="yes"/>
      <point x="134" y="732"/>
      <point x="28" y="628"/>
      <point x="28" y="542" type="qcurve" smooth="yes"/>
      <point x="28" y="456"/>
      <point x="134" y="352"/>
    </contour>
    <contour>
      <point x="220" y="462" type="qcurve" smooth="yes"/>
      <point x="186" y="462"/>
      <point x="148" y="506"/>
      <point x="148" y="542" type="qcurve" smooth="yes"/>
      <point x="148" y="578"/>
      <point x="186" y="622"/>
      <point x="220" y="622" type="qcurve"/>
      <point x="254" y="622"/>
      <point x="292" y="578"/>
      <point x="292" y="542" type="qcurve" smooth="yes"/>
      <point x="292" y="506"/>
      <point x="254" y="462"/>
    </contour>
  </outline>
</glyph>
<glyph name="Thorn" format="2">
  <advance width="600"/>
  <unicode hex="00DE"/>
  <outline>
    <contour>
      <point x="58" y="140" type="line"/>
      <point x="312" y="140" type="line" smooth="yes"/>
      <point x="392" y="140"/>
      <point x="509" y="197"/>
      <point x="570" y="299"/>
      <point x="570" y="365" type="qcurve" smooth="yes"/>
      <point x="570" y="431"/>
      <point x="509" y="533"/>
      <point x="392" y="590"/>
      <point x="312" y="590" type="qcurve" smooth="yes"/>
      <point x="58" y="590" type="line"/>
    </contour>
    <contour>
      <point x="58" y="0" type="line"/>
      <point x="208" y="0" type="line"/>
      <point x="208" y="720" type="line"/>
      <point x="58" y="720" type="line"/>
    </contour>
    <contour>
      <point x="208" y="260" type="line"/>
      <point x="208" y="470" type="line"/>
      <point x="294" y="470" type="line" smooth="yes"/>
      <point x="336" y="470"/>
      <point x="385" y="445"/>
      <point x="416" y="397"/>
      <point x="416" y="365" type="qcurve" smooth="yes"/>
      <point x="416" y="333"/>
      <point x="385" y="285"/>
      <point x="336" y="260"/>
      <point x="294" y="260" type="qcurve" smooth="yes"/>
    </contour>
  </outline>
</glyph>
<glyph name="eth" format="2">
  <advance width="560"/>
  <unicode hex="00F0"/>
  <outline>
    <contour>
      <point x="152" y="541" type="line"/>
      <point x="265" y="541" type="line"/>
      <point x="464" y="746" type="line"/>
      <point x="351" y="746" type="line"/>
    </contour>
    <component base="partialdiff"/>
  </outline>
</glyph>
<glyph name="oslash" format="2">
  <advance width="560"/>
  <unicode hex="00F8"/>
  <anchor x="280" y="0" name="bottom"/>
  <anchor x="364" y="10" name="ogonek"/>
  <anchor x="280" y="500" name="top"/>
  <outline>
    <contour>
      <point x="46" y="0" type="line"/>
      <point x="134" y="0" type="line"/>
      <point x="518" y="500" type="line"/>
      <point x="430" y="500" type="line"/>
    </contour>
    <component base="o"/>
  </outline>
</glyph>
<glyph name="thorn" format="2">
  <advance width="584"/>
  <unicode hex="00FE"/>
  <anchor x="332" y="0" name="bottom"/>
  <anchor x="334" y="500" name="top"/>
  <outline>
    <contour>
      <point x="56" y="-220" type="line"/>
      <point x="198" y="-220" type="line"/>
      <point x="198" y="100" type="line"/>
      <point x="56" y="100" type="line"/>
    </contour>
    <component base="b"/>
  </outline>
</glyph>
<glyph name="kgreenlandic" format="2">
  <advance width="530"/>
  <unicode hex="0138"/>
  <outline>
    <contour>
      <point x="56" y="0" type="line"/>
      <point x="196" y="0" type="line"/>
      <point x="196" y="176" type="line"/>
      <point x="228" y="210" type="line"/>
      <point x="363" y="0" type="line"/>
      <point x="521" y="0" type="line"/>
      <point x="332" y="294" type="line"/>
      <point x="524" y="500" type="line"/>
      <point x="361" y="500" type="line"/>
      <point x="196" y="322" type="line"/>
      <point x="196" y="500" type="line"/>
      <point x="56" y="500" type="line"/>
    </contour>
  </outline>
</glyph>
<glyph name="OE" format="2">
  <advance width="1080"/>
  <unicode hex="0152"/>
  <anchor x="555" y="0" name="bottom"/>
  <anchor x="1024" y="0" name="ogonek"/>
  <anchor x="555" y="720" name="top"/>
  <anchor x="26" y="720" name="topleft"/>
  <outline>
    <contour>
      <point x="380" y="-12" type="qcurve" smooth="yes"/>
      <point x="480" y="-12"/>
      <point x="632" y="76"/>
      <point x="720" y="240"/>
      <point x="720" y="360" type="qcurve" smooth="yes"/>
      <point x="720" y="480"/>
      <point x="632" y="644"/>
      <point x="480" y="732"/>
      <point x="380" y="732" type="qcurve" smooth="yes"/>
      <point x="280" y="732"/>
      <point x="128" y="644"/>
      <point x="40" y="480"/>
      <point x="40" y="360" type="qcurve" smooth="yes"/>
      <point x="40" y="240"/>
      <point x="128" y="76"/>
      <point x="280" y="-12"/>
    </contour>
    <contour>
      <point x="380" y="116" type="qcurve" smooth="yes"/>
      <point x="320" y="116"/>
      <point x="240" y="172"/>
      <point x="194" y="278"/>
      <point x="194" y="360" type="qcurve" smooth="yes"/>
      <point x="194" y="442"/>
      <point x="240" y="548"/>
      <point x="320" y="604"/>
      <point x="380" y="604" type="qcurve" smooth="yes"/>
      <point x="440" y="604"/>
      <point x="520" y="548"/>
      <point x="566" y="442"/>
      <point x="566" y="360" type="qcurve" smooth="yes"/>
      <point x="566" y="278"/>
      <point x="520" y="172"/>
      <point x="440" y="116"/>
    </contour>
    <component base="E" xOffset="512"/>
  </outline>
</glyph>
<glyph name="oe" format="2">
  <advance width="840"/>
  <unicode hex="0153"/>
  <anchor x="426" y="500" name="top"/>
  <outline>
    <contour>
      <point x="254" y="-12" type="qcurve" smooth="yes"/>
      <point x="300" y="-12"/>
      <point x="366" y="14"/>
      <point x="404" y="50"/>
      <point x="416" y="72" type="qcurve"/>
      <point x="428" y="50"/>
      <point x="480" y="12"/>
      <point x="551" y="-12"/>
      <point x="599" y="-12" type="qcurve" smooth="yes"/>
      <point x="667" y="-12"/>
      <point x="761" y="40"/>
      <point x="812" y="122"/>
      <point x="812" y="160" type="qcurve"/>
      <point x="680" y="160" type="line"/>
      <point x="680" y="144"/>
      <point x="662" y="115"/>
      <point x="627" y="94"/>
      <point x="597" y="94" type="qcurve"/>
      <point x="566" y="94"/>
      <point x="515" y="122"/>
      <point x="488" y="174"/>
      <point x="488" y="210" type="qcurve"/>
      <point x="814" y="210" type="line"/>
      <point x="814" y="260" type="line" smooth="yes"/>
      <point x="814" y="335"/>
      <point x="762" y="451"/>
      <point x="659" y="512"/>
      <point x="597" y="512" type="qcurve" smooth="yes"/>
      <point x="551" y="512"/>
      <point x="482" y="490"/>
      <point x="430" y="448"/>
      <point x="418" y="428" type="qcurve"/>
      <point x="406" y="448"/>
      <point x="363" y="486"/>
      <point x="300" y="512"/>
      <point x="254" y="512" type="qcurve" smooth="yes"/>
      <point x="188" y="512"/>
      <point x="84" y="450"/>
      <point x="26" y="331"/>
      <point x="26" y="250" type="qcurve" smooth="yes"/>
      <point x="26" y="169"/>
      <point x="84" y="50"/>
      <point x="188" y="-12"/>
    </contour>
    <contour>
      <point x="260" y="108" type="qcurve" smooth="yes"/>
      <point x="226" y="108"/>
      <point x="184" y="144"/>
      <point x="164" y="206"/>
      <point x="164" y="250" type="qcurve" smooth="yes"/>
      <point x="164" y="294"/>
      <point x="184" y="356"/>
      <point x="226" y="392"/>
      <point x="260" y="392" type="qcurve" smooth="yes"/>
      <point x="294" y="392"/>
      <point x="336" y="356"/>
      <point x="356" y="294"/>
      <point x="356" y="250" type="qcurve" smooth="yes"/>
      <point x="356" y="206"/>
      <point x="336" y="144"/>
      <point x="294" y="108"/>
    </contour>
    <contour>
      <point x="490" y="298" type="line"/>
      <point x="492" y="336"/>
      <point x="521" y="388"/>
      <point x="563" y="412"/>
      <point x="591" y="412" type="qcurve" smooth="yes"/>
      <point x="623" y="412"/>
      <point x="661" y="386"/>
      <point x="684" y="338"/>
      <point x="684" y="298" type="qcurve"/>
    </contour>
  </outline>
</glyph>
<glyph name="tbar" format="2">
  <advance width="380"/>
  <unicode hex="0167"/>
  <anchor x="226" y="0" name="bottom"/>
  <anchor x="170" y="620" name="top"/>
  <anchor x="276" y="720" name="topright"/>
  <outline>
    <contour>
      <point x="20" y="210" type="line"/>
      <point x="344" y="210" type="line"/>
      <point x="344" y="290" type="line"/>
      <point x="20" y="290" type="line"/>
    </contour>
    <component base="t"/>
  </outline>
</glyph>
<glyph name="Schwa" format="2">
  <advance width="740"/>
  <unicode hex="018F"/>
  <anchor x="371" y="0" name="bottom"/>
  <anchor x="371" y="720" name="top"/>
  <outline>
    <contour>
      <point x="369" y="-12" type="qcurve" smooth="yes"/>
      <point x="471" y="-12"/>
      <point x="617" y="76"/>
      <point x="700" y="240"/>
      <point x="700" y="360" type="qcurve" smooth="yes"/>
      <point x="700" y="480"/>
      <point x="612" y="644"/>
      <point x="458" y="732"/>
      <point x="356" y="732" type="qcurve" smooth="yes"/>
      <point x="270" y="732"/>
      <point x="138" y="676"/>
      <point x="52" y="566"/>
      <point x="48" y="510" type="qcurve"/>
      <point x="198" y="510" type="line"/>
      <point x="202" y="534"/>
      <point x="248" y="586"/>
      <point x="314" y="608"/>
      <point x="356" y="608" type="qcurve" smooth="yes"/>
      <point x="416" y="608"/>
      <point x="501" y="556"/>
      <point x="554" y="452"/>
      <point x="554" y="360" type="qcurve" smooth="yes"/>
      <point x="554" y="268"/>
      <point x="510" y="162"/>
      <point x="429" y="112"/>
      <point x="369" y="112" type="qcurve" smooth="yes"/>
      <point x="309" y="112"/>
      <point x="233" y="160"/>
      <point x="194" y="246"/>
      <point x="194" y="292" type="qcurve"/>
      <point x="596" y="292" type="line"/>
      <point x="596" y="412" type="line"/>
      <point x="40" y="412" type="line"/>
      <point x="40" y="360" type="line" smooth="yes"/>
      <point x="40" y="240"/>
      <point x="121" y="81"/>
      <point x="267" y="-12"/>
    </contour>
  </outline>
</glyph>
<glyph name="Ezh" format="2">
  <advance width="604"/>
  <unicode hex="01B7"/>
  <anchor x="284" y="0" name="bottom"/>
  <anchor x="284" y="720" name="top"/>
  <outline>
    <contour>
      <point x="300" y="-12" type="qcurve" smooth="yes"/>
      <point x="381" y="-12"/>
      <point x="500" y="45"/>
      <point x="564" y="149"/>
      <point x="564" y="218" type="qcurve" smooth="yes"/>
      <point x="564" y="277"/>
      <point x="524" y="369"/>
      <point x="422" y="436"/>
      <point x="336" y="436" type="qcurve"/>
      <point x="540" y="674" type="line"/>
      <point x="540" y="720" type="line"/>
      <point x="46" y="720" type="line"/>
      <point x="46" y="600" type="line"/>
      <point x="334" y="600" type="line"/>
      <point x="170" y="402" type="line"/>
      <point x="170" y="326" type="line"/>
      <point x="286" y="326" type="line" smooth="yes"/>
      <point x="340" y="326"/>
      <point x="390" y="296"/>
      <point x="414" y="250"/>
      <point x="414" y="218" type="qcurve" smooth="yes"/>
      <point x="414" y="186"/>
      <point x="390" y="136"/>
      <point x="336" y="108"/>
      <point x="300" y="108" type="qcurve" smooth="yes"/>
      <point x="262" y="108"/>
      <point x="206" y="132"/>
      <point x="176" y="178"/>
      <point x="176" y="210" type="qcurve"/>
      <point x="30" y="210" type="line"/>
      <point x="30" y="146"/>
      <point x="100" y="44"/>
      <point x="221" y="-12"/>
    </contour>
  </outline>
</glyph>
<glyph name="jdotless" format="2">
  <advance width="256"/>
  <unicode hex="0237"/>
  <anchor x="112" y="-200" name="bottom"/>
  <anchor x="128" y="500" name="top"/>
  <outline>
    <contour>
      <point x="-20" y="-200" type="line"/>
      <point x="51" y="-200" type="line" smooth="yes"/>
      <point x="125" y="-200"/>
      <point x="199" y="-132"/>
      <point x="199" y="-60" type="qcurve" smooth="yes"/>
      <point x="199" y="500" type="line"/>
      <point x="57" y="500" type="line"/>
      <point x="57" y="-38" type="line" smooth="yes"/>
      <point x="57" y="-62"/>
      <point x="33" y="-86"/>
      <point x="9" y="-86" type="qcurve" smooth="yes"/>
      <point x="-20" y="-86" type="line"/>
    </contour>
  </outline>
</glyph>
<glyph name="ezh" format="2">
  <advance width="520"/>
  <unicode hex="0292"/>
  <anchor x="258" y="-200" name="bottom"/>
  <anchor x="248" y="500" name="top"/>
  <outline>
    <contour>
      <point x="256" y="-212" type="qcurve" smooth="yes"/>
      <point x="328" y="-212"/>
      <point x="437" y="-158"/>
      <point x="496" y="-60"/>
      <point x="496" y="0" type="qcurve" smooth="yes"/>
      <point x="496" y="72"/>
      <point x="444" y="170"/>
      <point x="348" y="220"/>
      <point x="290" y="220" type="qcurve"/>
      <point x="466" y="460" type="line"/>
      <point x="466" y="500" type="line"/>
      <point x="46" y="500" type="line"/>
      <point x="46" y="382" type="line"/>
      <point x="276" y="382" type="line"/>
      <point x="120" y="162" type="line"/>
      <point x="120" y="120" type="line"/>
      <point x="206" y="120" type="line" smooth="yes"/>
      <point x="266" y="120"/>
      <point x="326" y="92"/>
      <point x="354" y="38"/>
      <point x="354" y="0" type="qcurve" smooth="yes"/>
      <point x="354" y="-28"/>
      <point x="332" y="-74"/>
      <point x="288" y="-100"/>
      <point x="256" y="-100" type="qcurve" smooth="yes"/>
      <point x="226" y="-100"/>
      <point x="188" y="-86"/>
      <point x="164" y="-56"/>
      <point x="164" y="-40" type="qcurve"/>
      <point x="20" y="-40" type="line"/>
      <point x="22" y="-76"/>
      <point x="76" y="-162"/>
      <point x="184" y="-212"/>
    </contour>
  </outline>
</glyph>
<glyph name="verticallinemod" format="2">
  <advance width="200"/>
  <unicode hex="02C8"/>
  <outline>
    <contour>
      <point x="45" y="460" type="line"/>
      <point x="155" y="460" type="line"/>
      <point x="155" y="720" type="line"/>
      <point x="45" y="720" type="line"/>
    </contour>
  </outline>
</glyph>
<glyph name="tildecomb" format="2">
  <unicode hex="0303"/>
  <anchor x="200" y="500" name="_top"/>
  <anchor x="200" y="720" name="top"/>
  <outline>
    <contour>
      <point x="286" y="562" type="qcurve" smooth="yes"/>
      <point x="318" y="562"/>
      <point x="368" y="595"/>
      <point x="392" y="660"/>
      <point x="382" y="720" type="qcurve"/>
      <point x="272" y="720" type="line"/>
      <point x="278" y="704"/>
      <point x="280" y="678"/>
      <point x="272" y="660"/>
      <point x="260" y="660" type="qcurve" smooth="yes"/>
      <point x="248" y="660"/>
      <point x="200" y="703"/>
      <point x="152" y="728"/>
      <point x="114" y="728" type="qcurve" smooth="yes"/>
      <point x="82" y="728"/>
      <point x="31" y="695"/>
      <point x="8" y="630"/>
      <point x="18" y="570" type="qcurve"/>
      <point x="128" y="570" type="line"/>
      <point x="122" y="586"/>
      <point x="120" y="612"/>
      <point x="128" y="630"/>
      <point x="140" y="630" type="qcurve" smooth="yes"/>
      <point x="152" y="630"/>
      <point x="200" y="587"/>
      <point x="248" y="562"/>
    </contour>
  </outline>
</glyph>
<glyph name="macroncomb" format="2">
  <unicode hex="0304"/>
  <anchor x="200" y="500" name="_top"/>
  <anchor x="200" y="720" name="top"/>
  <outline>
    <contour>
      <point x="46" y="590" type="line"/>
      <point x="354" y="590" type="line"/>
      <point x="354" y="690" type="line"/>
      <point x="46" y="690" type="line"/>
    </contour>
  </outline>
</glyph>
<glyph name="brevecomb" format="2">
  <unicode hex="0306"/>
  <anchor x="200" y="500" name="_top"/>
  <anchor x="200" y="720" name="top"/>
  <outline>
    <contour>
      <point x="200" y="558" type="qcurve" smooth="yes"/>
      <point x="248" y="558"/>
      <point x="324" y="584"/>
      <point x="376" y="656"/>
      <point x="376" y="720" type="qcurve"/>
      <point x="244" y="720" type="line"/>
      <point x="244" y="702"/>
      <point x="236" y="682"/>
      <point x="216" y="668"/>
      <point x="200" y="668" type="qcurve" smooth="yes"/>
      <point x="184" y="668"/>
      <point x="164" y="682"/>
      <point x="156" y="702"/>
      <point x="156" y="720" type="qcurve"/>
      <point x="24" y="720" type="line"/>
      <point x="24" y="656"/>
      <point x="76" y="584"/>
      <point x="152" y="558"/>
    </contour>
  </outline>
</glyph>
<glyph name="ringcomb" format="2">
  <unicode hex="030A"/>
  <anchor x="150" y="500" name="_top"/>
  <anchor x="150" y="720" name="top"/>
  <outline>
    <contour>
      <point x="150" y="534" type="qcurve" smooth="yes"/>
      <point x="205" y="534"/>
      <point x="276" y="603"/>
      <point x="276" y="654" type="qcurve" smooth="yes"/>
      <point x="276" y="705"/>
      <point x="205" y="774"/>
      <point x="150" y="774" type="qcurve" smooth="yes"/>
      <point x="95" y="774"/>
      <point x="24" y="705"/>
      <point x="24" y="654" type="qcurve" smooth="yes"/>
      <point x="24" y="603"/>
      <point x="95" y="534"/>
    </contour>
    <contour>
      <point x="150" y="610" type="qcurve" smooth="yes"/>
      <point x="132" y="610"/>
      <point x="110" y="634"/>
      <point x="110" y="654" type="qcurve" smooth="yes"/>
      <point x="110" y="674"/>
      <point x="132" y="698"/>
      <point x="150" y="698" type="qcurve" smooth="yes"/>
      <point x="168" y="698"/>
      <point x="190" y="674"/>
      <point x="190" y="654" type="qcurve" smooth="yes"/>
      <point x="190" y="634"/>
      <point x="168" y="610"/>
    </contour>
  </outline>
</glyph>
<glyph name="ogonekcomb" format="2">
  <unicode hex="0328"/>
  <anchor x="244" y="0" name="_ogonek"/>
  <outline>
    <contour>
      <point x="183" y="-228" type="qcurve" smooth="yes"/>
      <point x="207" y="-228"/>
      <point x="246" y="-215"/>
      <point x="258" y="-205" type="qcurve"/>
      <point x="258" y="-118" type="line"/>
      <point x="250" y="-126"/>
      <point x="232" y="-135"/>
      <point x="222" y="-135" type="qcurve" smooth="yes"/>
      <point x="206" y="-135"/>
      <point x="189" y="-116"/>
      <point x="189" y="-100" type="qcurve" smooth="yes"/>
      <point x="189" y="-76"/>
      <point x="224" y="-25"/>
      <point x="254" y="0" type="qcurve"/>
      <point x="138" y="10" type="line"/>
      <point x="102" y="-14"/>
      <point x="60" y="-80"/>
      <point x="60" y="-120" type="qcurve" smooth="yes"/>
      <point x="60" y="-170"/>
      <point x="126" y="-228"/>
    </contour>
  </outline>
</glyph>
<glyph name="delta" format="2">
  <advance width="540"/>
  <unicode hex="03B4"/>
  <outline>
    <contour>
      <point x="270" y="-12" type="qcurve" smooth="yes"/>
      <point x="343" y="-12"/>
      <point x="454" y="49"/>
      <point x="516" y="163"/>
      <point x="516" y="239" type="qcurve" smooth="yes"/>
      <point x="516" y="308"/>
      <point x="470" y="400"/>
      <point x="398" y="458"/>
      <point x="338" y="489"/>
      <point x="293" y="509"/>
      <point x="235" y="536"/>
      <point x="208" y="563"/>
      <point x="208" y="579" type="qcurve" smooth="yes"/>
      <point x="208" y="591"/>
      <point x="220" y="607"/>
      <point x="236" y="614"/>
      <point x="250" y="614" type="qcurve" smooth="yes"/>
      <point x="280" y="614"/>
      <point x="372" y="584"/>
      <point x="450" y="552"/>
      <point x="480" y="538" type="qcurve"/>
      <point x="480" y="665" type="line"/>
      <point x="454" y="679"/>
      <point x="384" y="701"/>
      <point x="276" y="728"/>
      <point x="218" y="728" type="qcurve" smooth="yes"/>
      <point x="165" y="728"/>
      <point x="97" y="694"/>
      <point x="64" y="640"/>
      <point x="64" y="606" type="qcurve" smooth="yes"/>
      <point x="64" y="570"/>
      <point x="92" y="516"/>
      <point x="150" y="470"/>
      <point x="196" y="450" type="qcurve"/>
      <point x="160" y="450"/>
      <point x="78" y="406"/>
      <point x="24" y="315"/>
      <point x="24" y="239" type="qcurve" smooth="yes"/>
      <point x="24" y="163"/>
      <point x="86" y="49"/>
      <point x="197" y="-12"/>
    </contour>
    <contour>
      <point x="270" y="108" type="qcurve" smooth="yes"/>
      <point x="234" y="108"/>
      <point x="190" y="146"/>
      <point x="170" y="204"/>
      <point x="170" y="236" type="qcurve" smooth="yes"/>
      <point x="170" y="268"/>
      <point x="190" y="326"/>
      <point x="234" y="364"/>
      <point x="270" y="364" type="qcurve" smooth="yes"/>
      <point x="306" y="364"/>
      <point x="350" y="326"/>
      <point x="370" y="268"/>
      <point x="370" y="236" type="qcurve" smooth="yes"/>
      <point x="370" y="204"/>
      <point x="350" y="146"/>
      <point x="306" y="108"/>
    </contour>
  </outline>
</glyph>
<glyph name="Dje-cy" format="2">
  <advance width="820"/>
  <unicode hex="0402"/>
  <outline>
    <contour>
      <point x="248" y="0" type="line"/>
      <point x="398" y="0" type="line"/>
      <point x="398" y="590" type="line"/>
      <point x="681" y="590" type="line"/>
      <point x="681" y="720" type="line"/>
      <point x="20" y="720" type="line"/>
      <point x="20" y="590" type="line"/>
      <point x="248" y="590" type="line"/>
    </contour>
    <component base="paunch-1" xOffset="378"/>
  </outline>
</glyph>
<glyph name="Dzhe-cy" format="2">
  <advance width="680"/>
  <unicode hex="040F"/>
  <outline>
    <contour>
      <point x="273" y="-160" type="line"/>
      <point x="407" y="-160" type="line"/>
      <point x="407" y="0" type="line"/>
      <point x="622" y="0" type="line"/>
      <point x="622" y="720" type="line"/>
      <point x="472" y="720" type="line"/>
      <point x="472" y="130" type="line"/>
      <point x="208" y="130" type="line"/>
      <point x="208" y="720" type="line"/>
      <point x="58" y="720" type="line"/>
      <point x="58" y="0" type="line"/>
      <point x="273" y="0" type="line"/>
    </contour>
  </outline>
</glyph>
<glyph name="Be-cy" format="2">
  <advance width="612"/>
  <unicode hex="0411"/>
  <outline>
    <contour>
      <point x="58" y="0" type="line"/>
      <point x="329" y="0" type="line" smooth="yes"/>
      <point x="409" y="0"/>
      <point x="519" y="65"/>
      <point x="572" y="171"/>
      <point x="572" y="227" type="qcurve" smooth="yes"/>
      <point x="572" y="283"/>
      <point x="524" y="389"/>
      <point x="409" y="453"/>
      <point x="329" y="453" type="qcurve" smooth="yes"/>
      <point x="208" y="453" type="line"/>
      <point x="208" y="592" type="line"/>
      <point x="525" y="592" type="line"/>
      <point x="525" y="720" type="line"/>
      <point x="58" y="720" type="line"/>
    </contour>
    <contour>
      <point x="208" y="120" type="line"/>
      <point x="208" y="333" type="line"/>
      <point x="301" y="333" type="line" smooth="yes"/>
      <point x="341" y="333"/>
      <point x="391" y="312"/>
      <point x="422" y="267"/>
      <point x="422" y="227" type="qcurve" smooth="yes"/>
      <point x="422" y="187"/>
      <point x="391" y="142"/>
      <point x="341" y="120"/>
      <point x="301" y="120" type="qcurve" smooth="yes"/>
    </contour>
  </outline>
</glyph>
<glyph name="De-cy" format="2">
  <advance width="732"/>
  <unicode hex="0414"/>
  <outline>
    <contour>
      <point x="20" y="-160" type="line"/>
      <point x="154" y="-160" type="line"/>
      <point x="154" y="0" type="line"/>
      <point x="574" y="0" type="line"/>
      <point x="574" y="-160" type="line"/>
      <point x="708" y="-160" type="line"/>
      <point x="708" y="130" type="line"/>
      <point x="616" y="130" type="line"/>
      <point x="616" y="720" type="line"/>
      <point x="138" y="720" type="line"/>
      <point x="138" y="484" type="line" smooth="yes"/>
      <point x="138" y="336"/>
      <point x="113" y="164"/>
      <point x="87" y="130" type="qcurve"/>
      <point x="20" y="130" type="line"/>
    </contour>
    <contour>
      <point x="227" y="130" type="line"/>
      <point x="247" y="176"/>
      <point x="270" y="350"/>
      <point x="270" y="470" type="qcurve" smooth="yes"/>
      <point x="270" y="590" type="line"/>
      <point x="466" y="590" type="line"/>
      <point x="466" y="130" type="line"/>
    </contour>
  </outline>
</glyph>
<glyph name="Ze-cy" format="2">
  <advance width="620"/>
  <unicode hex="0417"/>
  <anchor x="307" y="0" name="bottom"/>
  <anchor x="307" y="720" name="top"/>
  <outline>
    <contour>
      <point x="317" y="-12" type="qcurve" smooth="yes"/>
      <point x="398" y="-12"/>
      <point x="516" y="42"/>
      <point x="580" y="138"/>
      <point x="580" y="200" type="qcurve" smooth="yes"/>
      <point x="580" y="244"/>
      <point x="546" y="320"/>
      <point x="476" y="367"/>
      <point x="428" y="377" type="qcurve"/>
      <point x="472" y="383"/>
      <point x="540" y="429"/>
      <point x="569" y="494"/>
      <point x="569" y="534" type="qcurve" smooth="yes"/>
      <point x="569" y="582"/>
      <point x="513" y="676"/>
      <point x="391" y="732"/>
      <point x="313" y="732" type="qcurve" smooth="yes"/>
      <point x="219" y="732"/>
      <point x="97" y="674"/>
      <point x="30" y="574"/>
      <point x="30" y="510" type="qcurve"/>
      <point x="176" y="510" type="line"/>
      <point x="176" y="538"/>
      <point x="206" y="588"/>
      <point x="265" y="614"/>
      <point x="309" y="614" type="qcurve" smooth="yes"/>
      <point x="339" y="614"/>
      <point x="387" y="594"/>
      <point x="419" y="552"/>
      <point x="419" y="522" type="qcurve" smooth="yes"/>
      <point x="419" y="492"/>
      <point x="389" y="450"/>
      <point x="330" y="428"/>
      <point x="288" y="428" type="qcurve" smooth="yes"/>
      <point x="211" y="428" type="line"/>
      <point x="211" y="304" type="line"/>
      <point x="290" y="304" type="line" smooth="yes"/>
      <point x="338" y="304"/>
      <point x="398" y="284"/>
      <point x="430" y="238"/>
      <point x="430" y="208" type="qcurve" smooth="yes"/>
      <point x="430" y="178"/>
      <point x="406" y="134"/>
      <point x="354" y="106"/>
      <point x="314" y="106" type="qcurve" smooth="yes"/>
      <point x="274" y="106"/>
      <point x="213" y="128"/>
      <point x="176" y="178"/>
      <point x="176" y="210" type="qcurve"/>
      <point x="30" y="210" type="line"/>
      <point x="30" y="146"/>
      <point x="98" y="46"/>
      <point x="221" y="-12"/>
    </contour>
  </outline>
</glyph>
<glyph name="Ka-cy" format="2">
  <advance width="680"/>
  <unicode hex="041A"/>
  <anchor x="160" y="580" name="center"/>
  <anchor x="317" y="720" name="top"/>
  <outline>
    <contour>
      <point x="204" y="0" type="line"/>
      <point x="204" y="720" type="line"/>
      <point x="58" y="720" type="line"/>
      <point x="58" y="0" type="line"/>
    </contour>
    <contour>
      <point x="488" y="0" type="line"/>
      <point x="660" y="0" type="line"/>
      <point x="442" y="372" type="line"/>
      <point x="272" y="372" type="line"/>
    </contour>
    <contour>
      <point x="280" y="348" type="line"/>
      <point x="432" y="348" type="line"/>
      <point x="650" y="720" type="line"/>
      <point x="496" y="720" type="line"/>
    </contour>
    <contour>
      <point x="130" y="428" type="line"/>
      <point x="130" y="300" type="line"/>
      <point x="390" y="300" type="line"/>
      <point x="390" y="428" type="line"/>
    </contour>
  </outline>
</glyph>
<glyph name="El-cy" format="2">
  <advance width="680"/>
  <unicode hex="041B"/>
  <outline>
    <contour>
      <point x="20" y="0" type="line"/>
      <point x="90" y="0"/>
      <point x="186" y="20"/>
      <point x="258" y="100"/>
      <point x="280" y="258"/>
      <point x="280" y="452" type="qcurve" smooth="yes"/>
      <point x="280" y="590" type="line"/>
      <point x="472" y="590" type="line"/>
      <point x="472" y="0" type="line"/>
      <point x="622" y="0" type="line"/>
      <point x="622" y="720" type="line"/>
      <point x="142" y="720" type="line"/>
      <point x="142" y="468" type="line" smooth="yes"/>
      <point x="142" y="285"/>
      <point x="127" y="197"/>
      <point x="98" y="152"/>
      <point x="58" y="134"/>
      <point x="20" y="134" type="qcurve"/>
    </contour>
  </outline>
</glyph>
<glyph name="Ef-cy" format="2">
  <advance width="900"/>
  <unicode hex="0424"/>
  <outline>
    <contour>
      <point x="376" y="0" type="line"/>
      <point x="524" y="0" type="line"/>
      <point x="524" y="112" type="line"/>
      <point x="602" y="112" type="line" smooth="yes"/>
      <point x="670" y="112"/>
      <point x="794" y="170"/>
      <point x="870" y="294"/>
      <point x="870" y="382" type="qcurve" smooth="yes"/>
      <point x="870" y="390" type="line" smooth="yes"/>
      <point x="870" y="478"/>
      <point x="794" y="602"/>
      <point x="670" y="660"/>
      <point x="602" y="660" type="qcurve" smooth="yes"/>
      <point x="524" y="660" type="line"/>
      <point x="524" y="760" type="line"/>
      <point x="376" y="760" type="line"/>
      <point x="376" y="660" type="line"/>
      <point x="298" y="660" type="line" smooth="yes"/>
      <point x="230" y="660"/>
      <point x="106" y="602"/>
      <point x="30" y="478"/>
      <point x="30" y="390" type="qcurve" smooth="yes"/>
      <point x="30" y="382" type="line" smooth="yes"/>
      <point x="30" y="294"/>
      <point x="106" y="170"/>
      <point x="230" y="112"/>
      <point x="298" y="112" type="qcurve" smooth="yes"/>
      <point x="376" y="112" type="line"/>
    </contour>
    <contour>
      <point x="308" y="232" type="line" smooth="yes"/>
      <point x="262" y="232"/>
      <point x="204" y="266"/>
      <point x="176" y="326"/>
      <point x="176" y="372" type="qcurve" smooth="yes"/>
      <point x="176" y="400" type="line" smooth="yes"/>
      <point x="176" y="446"/>
      <point x="204" y="506"/>
      <point x="262" y="540"/>
      <point x="308" y="540" type="qcurve" smooth="yes"/>
      <point x="376" y="540" type="line"/>
      <point x="376" y="232" type="line"/>
    </contour>
    <contour>
      <point x="524" y="232" type="line"/>
      <point x="524" y="540" type="line"/>
      <point x="592" y="540" type="line" smooth="yes"/>
      <point x="638" y="540"/>
      <point x="696" y="506"/>
      <point x="724" y="446"/>
      <point x="724" y="400" type="qcurve" smooth="yes"/>
      <point x="724" y="372" type="line" smooth="yes"/>
      <point x="724" y="326"/>
      <point x="696" y="266"/>
      <point x="638" y="232"/>
      <point x="592" y="232" type="qcurve" smooth="yes"/>
    </contour>
  </outline>
</glyph>
<glyph name="Sha-cy" format="2">
  <advance width="980"/>
  <unicode hex="0428"/>
  <outline>
    <contour>
      <point x="58" y="0" type="line"/>
      <point x="922" y="0" type="line"/>
      <point x="922" y="720" type="line"/>
      <point x="772" y="720" type="line"/>
      <point x="772" y="130" type="line"/>
      <point x="565" y="130" type="line"/>
      <point x="565" y="720" type="line"/>
      <point x="415" y="720" type="line"/>
      <point x="415" y="130" type="line"/>
      <point x="208" y="130" type="line"/>
      <point x="208" y="720" type="line"/>
      <point x="58" y="720" type="line"/>
    </contour>
  </outline>
</glyph>
<glyph name="Hardsign-cy" format="2">
  <advance width="700"/>
  <unicode hex="042A"/>
  <anchor x="420" y="720" name="top"/>
  <anchor x="420" y="0" name="bottom"/>
  <outline>
    <contour>
      <point x="20" y="590" type="line"/>
      <point x="185" y="590" type="line"/>
      <point x="185" y="720" type="line"/>
      <point x="20" y="720" type="line"/>
    </contour>
    <component base="Softsign-cy" xOffset="100"/>
  </outline>
</glyph>
<glyph name="Yeru-cy" format="2">
  <advance width="840"/>
  <unicode hex="042B"/>
  <anchor x="396" y="0" name="bottom"/>
  <anchor x="770" y="0" name="ogonek"/>
  <anchor x="416" y="720" name="top"/>
  <outline>
    <contour>
      <point x="58" y="0" type="line"/>
      <point x="306" y="0" type="line" smooth="yes"/>
      <point x="386" y="0"/>
      <point x="494" y="45"/>
      <point x="570" y="152"/>
      <point x="570" y="228" type="qcurve" smooth="yes"/>
      <point x="570" y="304"/>
      <point x="494" y="410"/>
      <point x="386" y="456"/>
      <point x="306" y="456" type="qcurve" smooth="yes"/>
      <point x="208" y="456" type="line"/>
      <point x="208" y="720" type="line"/>
      <point x="58" y="720" type="line"/>
    </contour>
    <contour>
      <point x="208" y="124" type="line"/>
      <point x="208" y="332" type="line"/>
      <point x="290" y="332" type="line" smooth="yes"/>
      <point x="338" y="332"/>
      <point x="392" y="306"/>
      <point x="420" y="260"/>
      <point x="420" y="228" type="qcurve" smooth="yes"/>
      <point x="420" y="196"/>
      <point x="392" y="150"/>
      <point x="338" y="124"/>
      <point x="290" y="124" type="qcurve" smooth="yes"/>
    </contour>
    <component base="I" xOffset="572"/>
  </outline>
</glyph>
<glyph name="Ereversed-cy" format="2">
  <advance width="680"/>
  <unicode hex="042D"/>
  <anchor x="314" y="0" name="bottom"/>
  <anchor x="321" y="720" name="top"/>
  <outline>
    <contour>
      <point x="228" y="297" type="line"/>
      <point x="537" y="297" type="line"/>
      <point x="537" y="423" type="line"/>
      <point x="228" y="423" type="line"/>
    </contour>
    <component base="C" xScale="-1" xOffset="680"/>
  </outline>
</glyph>
<glyph name="zhe-cy" format="2">
  <advance width="792"/>
  <unicode hex="0436"/>
  <anchor x="396" y="500" name="top"/>
  <outline>
    <contour>
      <point x="325" y="0" type="line"/>
      <point x="467" y="0" type="line"/>
      <point x="467" y="500" type="line"/>
      <point x="325" y="500" type="line"/>
    </contour>
    <contour>
      <point x="261" y="196" type="line"/>
      <point x="531" y="196" type="line"/>
      <point x="614" y="0" type="line"/>
      <point x="776" y="0" type="line"/>
      <point x="654" y="264" type="line"/>
      <point x="768" y="500" type="line"/>
      <point x="616" y="500" type="line"/>
      <point x="529" y="300" type="line"/>
      <point x="264" y="300" type="line"/>
      <point x="176" y="500" type="line"/>
      <point x="24" y="500" type="line"/>
      <point x="138" y="264" type="line"/>
      <point x="16" y="0" type="line"/>
      <point x="178" y="0" type="line"/>
    </contour>
  </outline>
</glyph>
<glyph name="ze-cy" format="2">
  <advance width="490"/>
  <unicode hex="0437"/>
  <anchor x="248" y="0" name="bottom"/>
  <anchor x="246" y="500" name="top"/>
  <outline>
    <contour>
      <point x="252" y="-12" type="qcurve" smooth="yes"/>
      <point x="320" y="-12"/>
      <point x="418" y="34"/>
      <point x="458" y="102"/>
      <point x="458" y="142" type="qcurve" smooth="yes"/>
      <point x="458" y="190"/>
      <point x="404" y="248"/>
      <point x="364" y="260" type="qcurve"/>
      <point x="396" y="272"/>
      <point x="443" y="326"/>
      <point x="443" y="370" type="qcurve" smooth="yes"/>
      <point x="443" y="408"/>
      <point x="403" y="471"/>
      <point x="306" y="512"/>
      <point x="246" y="512" type="qcurve" smooth="yes"/>
      <point x="186" y="512"/>
      <point x="84" y="474"/>
      <point x="30" y="392"/>
      <point x="28" y="340" type="qcurve"/>
      <point x="158" y="340" type="line"/>
      <point x="158" y="364"/>
      <point x="178" y="394"/>
      <point x="214" y="406"/>
      <point x="238" y="406" type="qcurve" smooth="yes"/>
      <point x="262" y="406"/>
      <point x="292" y="394"/>
      <point x="307" y="370"/>
      <point x="307" y="356" type="qcurve" smooth="yes"/>
      <point x="307" y="340"/>
      <point x="293" y="314"/>
      <point x="261" y="300"/>
      <point x="226" y="300" type="qcurve" smooth="yes"/>
      <point x="178" y="300" type="line"/>
      <point x="178" y="200" type="line"/>
      <point x="226" y="200" type="line" smooth="yes"/>
      <point x="261" y="200"/>
      <point x="298" y="188"/>
      <point x="318" y="164"/>
      <point x="318" y="146" type="qcurve" smooth="yes"/>
      <point x="318" y="130"/>
      <point x="300" y="106"/>
      <point x="266" y="94"/>
      <point x="240" y="94" type="qcurve" smooth="yes"/>
      <point x="216" y="94"/>
      <point x="178" y="106"/>
      <point x="156" y="136"/>
      <point x="156" y="160" type="qcurve"/>
      <point x="26" y="160" type="line"/>
      <point x="28" y="108"/>
      <point x="84" y="24"/>
      <point x="180" y="-12"/>
    </contour>
  </outline>
</glyph>
<glyph name="ii-cy" format="2">
  <advance width="568"/>
  <unicode hex="0438"/>
  <anchor x="297" y="0" name="bottom"/>
  <anchor x="284" y="500" name="top"/>
  <outline>
    <contour>
      <point x="56" y="0" type="line"/>
      <point x="206" y="0" type="line"/>
      <point x="374" y="300" type="line"/>
      <point x="374" y="0" type="line"/>
      <point x="512" y="0" type="line"/>
      <point x="512" y="500" type="line"/>
      <point x="362" y="500" type="line"/>
      <point x="194" y="200" type="line"/>
      <point x="194" y="500" type="line"/>
      <point x="56" y="500" type="line"/>
    </contour>
  </outline>
</glyph>
<glyph name="em-cy" format="2">
  <advance width="700"/>
  <unicode hex="043C"/>
  <outline>
    <contour>
      <point x="56" y="0" type="line"/>
      <point x="188" y="0" type="line"/>
      <point x="188" y="380" type="line"/>
      <point x="302" y="0" type="line"/>
      <point x="386" y="0" type="line"/>
      <point x="500" y="380" type="line"/>
      <point x="500" y="0" type="line"/>
      <point x="644" y="0" type="line"/>
      <point x="644" y="500" type="line"/>
      <point x="436" y="500" type="line"/>
      <point x="354" y="190" type="line"/>
      <point x="268" y="500" type="line"/>
      <point x="56" y="500" type="line"/>
    </contour>
  </outline>
</glyph>
<glyph name="te-cy" format="2">
  <advance width="470"/>
  <unicode hex="0442"/>
  <outline>
    <contour>
      <point x="164" y="0" type="line"/>
      <point x="306" y="0" type="line"/>
      <point x="306" y="380" type="line"/>
      <point x="450" y="380" type="line"/>
      <point x="450" y="500" type="line"/>
      <point x="20" y="500" type="line"/>
      <point x="20" y="380" type="line"/>
      <point x="164" y="380" type="line"/>
    </contour>
  </outline>
</glyph>
<glyph name="tse-cy" format="2">
  <advance width="600"/>
  <unicode hex="0446"/>
  <outline>
    <contour>
      <point x="446" y="-160" type="line"/>
      <point x="576" y="-160" type="line"/>
      <point x="576" y="120" type="line"/>
      <point x="496" y="120" type="line"/>
      <point x="496" y="500" type="line"/>
      <point x="354" y="500" type="line"/>
      <point x="354" y="120" type="line"/>
      <point x="198" y="120" type="line"/>
      <point x="198" y="500" type="line"/>
      <point x="56" y="500" type="line"/>
      <point x="56" y="0" type="line"/>
      <point x="446" y="0" type="line"/>
    </contour>
  </outline>
</glyph>
<glyph name="sha-cy" format="2">
  <advance width="840"/>
  <unicode hex="0448"/>
  <outline>
    <contour>
      <point x="56" y="0" type="line"/>
      <point x="784" y="0" type="line"/>
      <point x="784" y="500" type="line"/>
      <point x="644" y="500" type="line"/>
      <point x="644" y="120" type="line"/>
      <point x="490" y="120" type="line"/>
      <point x="490" y="500" type="line"/>
      <point x="350" y="500" type="line"/>
      <point x="350" y="120" type="line"/>
      <point x="196" y="120" type="line"/>
      <point x="196" y="500" type="line"/>
      <point x="56" y="500" type="line"/>
    </contour>
  </outline>
</glyph>
<glyph name="hardsign-cy" format="2">
  <advance width="580"/>
  <unicode hex="044A"/>
  <anchor x="340" y="0" name="bottom"/>
  <anchor x="340" y="500" name="top"/>
  <outline>
    <contour>
      <point x="10" y="380" type="line"/>
      <point x="160" y="380" type="line"/>
      <point x="160" y="500" type="line"/>
      <point x="10" y="500" type="line"/>
    </contour>
    <component base="softsign-cy" xOffset="70"/>
  </outline>
</glyph>
<glyph name="yeru-cy" format="2">
  <advance width="720"/>
  <unicode hex="044B"/>
  <anchor x="297" y="0" name="bottom"/>
  <anchor x="350" y="500" name="top"/>
  <outline>
    <contour>
      <point x="56" y="0" type="line"/>
      <point x="272" y="0" type="line" smooth="yes"/>
      <point x="332" y="0"/>
      <point x="422" y="40"/>
      <point x="476" y="124"/>
      <point x="476" y="180" type="qcurve" smooth="yes"/>
      <point x="476" y="236"/>
      <point x="422" y="320"/>
      <point x="332" y="360"/>
      <point x="272" y="360" type="qcurve" smooth="yes"/>
      <point x="196" y="360" type="line"/>
      <point x="196" y="500" type="line"/>
      <point x="56" y="500" type="line"/>
    </contour>
    <contour>
      <point x="196" y="116" type="line"/>
      <point x="196" y="244" type="line"/>
      <point x="259" y="244" type="line" smooth="yes"/>
      <point x="283" y="244"/>
      <point x="317" y="230"/>
      <point x="336" y="200"/>
      <point x="336" y="180" type="qcurve" smooth="yes"/>
      <point x="336" y="160"/>
      <point x="317" y="130"/>
      <point x="283" y="116"/>
      <point x="259" y="116" type="qcurve" smooth="yes"/>
    </contour>
    <contour>
      <point x="528" y="0" type="line"/>
      <point x="664" y="0" type="line"/>
      <point x="664" y="500" type="line"/>
      <point x="528" y="500" type="line"/>
    </contour>
  </outline>
</glyph>
<glyph name="softsign-cy" format="2">
  <advance width="510"/>
  <unicode hex="044C"/>
  <anchor x="270" y="0" name="bottom"/>
  <anchor x="270" y="500" name="top"/>
  <outline>
    <contour>
      <point x="56" y="0" type="line"/>
      <point x="282" y="0" type="line" smooth="yes"/>
      <point x="342" y="0"/>
      <point x="432" y="40"/>
      <point x="486" y="124"/>
      <point x="486" y="180" type="qcurve" smooth="yes"/>
      <point x="486" y="236"/>
      <point x="432" y="320"/>
      <point x="342" y="360"/>
      <point x="282" y="360" type="qcurve" smooth="yes"/>
      <point x="196" y="360" type="line"/>
      <point x="196" y="500" type="line"/>
      <point x="56" y="500" type="line"/>
    </contour>
    <contour>
      <point x="196" y="116" type="line"/>
      <point x="196" y="244" type="line"/>
      <point x="269" y="244" type="line" smooth="yes"/>
      <point x="293" y="244"/>
      <point x="327" y="230"/>
      <point x="346" y="200"/>
      <point x="346" y="180" type="qcurve" smooth="yes"/>
      <point x="346" y="160"/>
      <point x="327" y="130"/>
      <point x="293" y="116"/>
      <point x="269" y="116" type="qcurve" smooth="yes"/>
    </contour>
  </outline>
</glyph>
<glyph name="ya-cy" format="2">
  <advance width="540"/>
  <unicode hex="044F"/>
  <anchor x="264" y="500" name="top"/>
  <outline>
    <contour>
      <point x="30" y="0" type="line"/>
      <point x="185" y="0" type="line"/>
      <point x="278" y="168" type="line"/>
      <point x="344" y="168" type="line"/>
      <point x="344" y="0" type="line"/>
      <point x="484" y="0" type="line"/>
      <point x="484" y="500" type="line"/>
      <point x="229" y="500" type="line" smooth="yes"/>
      <point x="136" y="500"/>
      <point x="38" y="411"/>
      <point x="38" y="336" type="qcurve" smooth="yes"/>
      <point x="38" y="278"/>
      <point x="91" y="201"/>
      <point x="133" y="182" type="qcurve"/>
    </contour>
    <contour>
      <point x="244" y="282" type="line" smooth="yes"/>
      <point x="180" y="282"/>
      <point x="180" y="334" type="qcurve" smooth="yes"/>
      <point x="180" y="386"/>
      <point x="244" y="386" type="qcurve" smooth="yes"/>
      <point x="344" y="386" type="line"/>
      <point x="344" y="282" type="line"/>
    </contour>
  </outline>
</glyph>
<glyph name="e-cy" format="2">
  <advance width="500"/>
  <unicode hex="0454"/>
  <anchor x="264" y="0" name="bottom"/>
  <anchor x="234" y="500" name="top"/>
  <outline>
    <contour>
      <point x="116" y="200" type="line"/>
      <point x="318" y="200" type="line"/>
      <point x="318" y="300" type="line"/>
      <point x="116" y="300" type="line"/>
    </contour>
    <component base="c"/>
  </outline>
</glyph>
<glyph name="tshe-cy" format="2">
  <advance width="600"/>
  <unicode hex="045B"/>
  <outline>
    <contour>
      <point x="96" y="0" type="line"/>
      <point x="238" y="0" type="line"/>
      <point x="238" y="180" type="line" smooth="yes"/>
      <point x="238" y="232"/>
      <point x="266" y="282"/>
      <point x="310" y="302"/>
      <point x="334" y="302" type="qcurve" smooth="yes"/>
      <point x="360" y="302"/>
      <point x="391" y="282"/>
      <point x="404" y="248"/>
      <point x="404" y="220" type="qcurve" smooth="yes"/>
      <point x="404" y="0" type="line"/>
      <point x="546" y="0" type="line"/>
      <point x="546" y="234" type="line" smooth="yes"/>
      <point x="546" y="306"/>
      <point x="508" y="386"/>
      <point x="440" y="430"/>
      <point x="382" y="430" type="qcurve" smooth="yes"/>
      <point x="352" y="430"/>
      <point x="292" y="406"/>
      <point x="250" y="362"/>
      <point x="238" y="336" type="qcurve"/>
      <point x="238" y="720" type="line"/>
      <point x="96" y="720" type="line"/>
    </contour>
    <contour>
      <point x="0" y="500" type="line"/>
      <point x="400" y="500" type="line"/>
      <point x="400" y="600" type="line"/>
      <point x="0" y="600" type="line"/>
    </contour>
  </outline>
</glyph>
<glyph name="dzhe-cy" format="2">
  <advance width="560"/>
  <unicode hex="045F"/>
  <outline>
    <contour>
      <point x="215" y="-160" type="line"/>
      <point x="345" y="-160" type="line"/>
      <point x="345" y="0" type="line"/>
      <point x="504" y="0" type="line"/>
      <point x="504" y="500" type="line"/>
      <point x="362" y="500" type="line"/>
      <point x="362" y="120" type="line"/>
      <point x="198" y="120" type="line"/>
      <point x="198" y="500" type="line"/>
      <point x="56" y="500" type="line"/>
      <point x="56" y="0" type="line"/>
      <point x="215" y="0" type="line"/>
    </contour>
  </outline>
</glyph>
<glyph name="Yat-cy" format="2">
  <advance width="760"/>
  <unicode hex="0462"/>
  <outline>
    <contour>
      <point x="218" y="0" type="line"/>
      <point x="466" y="0" type="line" smooth="yes"/>
      <point x="546" y="0"/>
      <point x="654" y="45"/>
      <point x="730" y="152"/>
      <point x="730" y="228" type="qcurve" smooth="yes"/>
      <point x="730" y="304"/>
      <point x="654" y="410"/>
      <point x="546" y="456"/>
      <point x="466" y="456" type="qcurve" smooth="yes"/>
      <point x="368" y="456" type="line"/>
      <point x="368" y="800" type="line"/>
      <point x="218" y="800" type="line"/>
    </contour>
    <contour>
      <point x="368" y="124" type="line"/>
      <point x="368" y="332" type="line"/>
      <point x="450" y="332" type="line" smooth="yes"/>
      <point x="498" y="332"/>
      <point x="552" y="306"/>
      <point x="580" y="260"/>
      <point x="580" y="228" type="qcurve" smooth="yes"/>
      <point x="580" y="196"/>
      <point x="552" y="150"/>
      <point x="498" y="124"/>
      <point x="450" y="124" type="qcurve" smooth="yes"/>
    </contour>
    <contour>
      <point x="24" y="560" type="line"/>
      <point x="605" y="560" type="line"/>
      <point x="605" y="680" type="line"/>
      <point x="24" y="680" type="line"/>
    </contour>
  </outline>
</glyph>
<glyph name="Fita-cy" format="2">
  <advance width="760"/>
  <unicode hex="0472"/>
  <anchor x="380" y="0" name="bottom"/>
  <anchor x="464" y="10" name="ogonek"/>
  <anchor x="380" y="720" name="top"/>
  <anchor x="30" y="720" name="topleft"/>
  <outline>
    <contour>
      <point x="479" y="269" type="qcurve" smooth="yes"/>
      <point x="516" y="269"/>
      <point x="570" y="296"/>
      <point x="595" y="317" type="qcurve"/>
      <point x="595" y="421" type="line"/>
      <point x="580" y="407"/>
      <point x="524" y="373"/>
      <point x="499" y="373" type="qcurve" smooth="yes"/>
      <point x="474" y="373"/>
      <point x="433" y="390"/>
      <point x="372" y="429"/>
      <point x="319" y="451"/>
      <point x="283" y="451" type="qcurve" smooth="yes"/>
      <point x="247" y="451"/>
      <point x="189" y="420"/>
      <point x="167" y="403" type="qcurve"/>
      <point x="167" y="299" type="line"/>
      <point x="182" y="314"/>
      <point x="237" y="347"/>
      <point x="263" y="347" type="qcurve" smooth="yes"/>
      <point x="285" y="347"/>
      <point x="325" y="330"/>
      <point x="391" y="291"/>
      <point x="446" y="269"/>
    </contour>
    <component base="O"/>
  </outline>
</glyph>
<glyph name="Izhitsa-cy" format="2">
  <advance width="740"/>
  <unicode hex="0474"/>
  <outline>
    <contour>
      <point x="236" y="0" type="line"/>
      <point x="424" y="0" type="line"/>
      <point x="564" y="500" type="line" smooth="yes"/>
      <point x="575" y="541"/>
      <point x="597" y="577"/>
      <point x="633" y="596"/>
      <point x="661" y="596" type="qcurve" smooth="yes"/>
      <point x="716" y="596" type="line"/>
      <point x="716" y="720" type="line"/>
      <point x="647" y="720" type="line" smooth="yes"/>
      <point x="567" y="720"/>
      <point x="491" y="682"/>
      <point x="451" y="610"/>
      <point x="432" y="536" type="qcurve" smooth="yes"/>
      <point x="336" y="160" type="line"/>
      <point x="178" y="720" type="line"/>
      <point x="20" y="720" type="line"/>
    </contour>
  </outline>
</glyph>
<glyph name="Zhedescender-cy" format="2">
  <advance width="1050"/>
  <unicode hex="0496"/>
  <anchor x="500" y="0" name="bottom"/>
  <anchor x="500" y="720" name="top"/>
  <outline>
    <contour>
      <point x="892" y="-160" type="line"/>
      <point x="1026" y="-160" type="line"/>
      <point x="1026" y="120" type="line"/>
      <point x="854" y="120" type="line"/>
      <point x="854" y="0" type="line"/>
      <point x="892" y="0" type="line"/>
    </contour>
    <component base="Zhe-cy"/>
  </outline>
</glyph>
<glyph name="kadescender-cy" format="2">
  <advance width="580"/>
  <unicode hex="049B"/>
  <anchor x="170" y="400" name="center"/>
  <anchor x="264" y="500" name="top"/>
  <outline>
    <contour>
      <point x="426" y="-160" type="line"/>
      <point x="556" y="-160" type="line"/>
      <point x="556" y="110" type="line"/>
      <point x="390" y="110" type="line"/>
      <point x="390" y="0" type="line"/>
      <point x="426" y="0" type="line"/>
    </contour>
    <component base="ka-cy"/>
  </outline>
</glyph>
<glyph name="endescender-cy" format="2">
  <advance width="600"/>
  <unicode hex="04A3"/>
  <outline>
    <contour>
      <point x="446" y="-160" type="line"/>
      <point x="576" y="-160" type="line"/>
      <point x="576" y="110" type="line"/>
      <point x="362" y="110" type="line"/>
      <point x="362" y="0" type="line"/>
      <point x="446" y="0" type="line"/>
    </contour>
    <component base="en-cy"/>
  </outline>
</glyph>
<glyph name="enge-cy" format="2">
  <advance width="720"/>
  <unicode hex="04A5"/>
  <anchor x="470" y="240" name="center"/>
  <anchor x="540" y="500" name="top"/>
  <anchor x="460" y="0" name="bottomright"/>
  <outline>
    <contour>
      <point x="56" y="0" type="line"/>
      <point x="198" y="0" type="line"/>
      <point x="198" y="200" type="line"/>
      <point x="436" y="200" type="line"/>
      <point x="436" y="320" type="line"/>
      <point x="198" y="320" type="line"/>
      <point x="198" y="500" type="line"/>
      <point x="56" y="500" type="line"/>
    </contour>
    <component base="ge-cy" xOffset="300"/>
  </outline>
</glyph>
<glyph name="hadescender-cy" format="2">
  <advance width="580"/>
  <unicode hex="04B3"/>
  <anchor x="272" y="0" name="bottom"/>
  <anchor x="272" y="500" name="top"/>
  <outline>
    <contour>
      <point x="426" y="-160" type="line"/>
      <point x="556" y="-160" type="line"/>
      <point x="556" y="110" type="line"/>
      <point x="384" y="110" type="line"/>
      <point x="384" y="0" type="line"/>
      <point x="426" y="0" type="line"/>
    </contour>
    <component base="x"/>
  </outline>
</glyph>
<glyph name="Chedescender-cy" format="2">
  <advance width="690"/>
  <unicode hex="04B6"/>
  <anchor x="322" y="720" name="top"/>
  <outline>
    <contour>
      <point x="532" y="-160" type="line"/>
      <point x="666" y="-160" type="line"/>
      <point x="666" y="120" type="line"/>
      <point x="432" y="120" type="line"/>
      <point x="432" y="0" type="line"/>
      <point x="532" y="0" type="line"/>
    </contour>
    <component base="Che-cy"/>
  </outline>
</glyph>
<glyph name="Cheverticalstroke-cy" format="2">
  <advance width="660"/>
  <unicode hex="04B8"/>
  <outline>
    <contour>
      <point x="456" y="0" type="line"/>
      <point x="602" y="0" type="line"/>
      <point x="602" y="720" type="line"/>
      <point x="456" y="720" type="line"/>
      <point x="456" y="377" type="line"/>
      <point x="443" y="371"/>
      <point x="390" y="363"/>
      <point x="366" y="363" type="qcurve"/>
      <point x="366" y="520" type="line"/>
      <point x="266" y="520" type="line"/>
      <point x="266" y="363" type="line"/>
      <point x="227" y="363"/>
      <point x="186" y="420"/>
      <point x="186" y="475" type="qcurve" smooth="yes"/>
      <point x="186" y="720" type="line"/>
      <point x="40" y="720" type="line"/>
      <point x="40" y="470" type="line" smooth="yes"/>
      <point x="40" y="354"/>
      <point x="157" y="227"/>
      <point x="266" y="227" type="qcurve"/>
      <point x="266" y="120" type="line"/>
      <point x="366" y="120" type="line"/>
      <point x="366" y="228" type="line"/>
      <point x="387" y="228"/>
      <point x="443" y="240"/>
      <point x="456" y="248" type="qcurve"/>
    </contour>
  </outline>
</glyph>
<glyph name="cheverticalstroke-cy" format="2">
  <advance width="528"/>
  <unicode hex="04B9"/>
  <outline>
    <contour>
      <point x="334" y="0" type="line"/>
      <point x="472" y="0" type="line"/>
      <point x="472" y="500" type="line"/>
      <point x="334" y="500" type="line"/>
      <point x="334" y="286" type="line"/>
      <point x="310" y="273"/>
      <point x="280" y="270" type="qcurve"/>
      <point x="280" y="400" type="line"/>
      <point x="220" y="400" type="line"/>
      <point x="220" y="270" type="line"/>
      <point x="190" y="270"/>
      <point x="174" y="308"/>
      <point x="174" y="357" type="qcurve" smooth="yes"/>
      <point x="174" y="500" type="line"/>
      <point x="36" y="500" type="line"/>
      <point x="36" y="330" type="line" smooth="yes"/>
      <point x="36" y="233"/>
      <point x="123" y="146"/>
      <point x="220" y="146" type="qcurve"/>
      <point x="220" y="80" type="line"/>
      <point x="280" y="80" type="line"/>
      <point x="280" y="146" type="line"/>
      <point x="313" y="151"/>
      <point x="334" y="162" type="qcurve"/>
    </contour>
  </outline>
</glyph>
<glyph name="Cheabkhasian-cy" format="2">
  <advance width="890"/>
  <unicode hex="04BC"/>
  <anchor x="519.0" y="720.0" name="top"/>
  <anchor x="524.0" y="-20.0" name="bottom"/>
  <outline>
    <contour>
      <point x="158" y="308" type="qcurve" smooth="yes"/>
      <point x="284" y="308" type="line"/>
      <point x="284" y="428" type="line"/>
      <point x="180" y="428" type="line" smooth="yes"/>
      <point x="154" y="428"/>
      <point x="132" y="448"/>
      <point x="132" y="470" type="qcurve" smooth="yes"/>
      <point x="132" y="580" type="line"/>
      <point x="16" y="580" type="line"/>
      <point x="16" y="444" type="line" smooth="yes"/>
      <point x="16" y="371"/>
      <point x="91" y="308"/>
    </contour>
    <component base="Schwa-cy" xScale="-1.0" yScale="-1.0" xOffset="890" yOffset="720"/>
  </outline>
</glyph>
<glyph name="cheabkhasian-cy" format="2">
  <advance width="640"/>
  <unicode hex="04BD"/>
  <anchor x="381" y="0" name="bottom"/>
  <anchor x="453" y="0" name="ogonek"/>
  <anchor x="381" y="500" name="top"/>
  <outline>
    <contour>
      <point x="134" y="216" type="qcurve" smooth="yes"/>
      <point x="227" y="216" type="line"/>
      <point x="227" y="300" type="line"/>
      <point x="140" y="300" type="line" smooth="yes"/>
      <point x="126" y="300"/>
      <point x="110" y="316"/>
      <point x="110" y="331" type="qcurve" smooth="yes"/>
      <point x="110" y="400" type="line"/>
      <point x="16" y="400" type="line"/>
      <point x="16" y="325" type="line" smooth="yes"/>
      <point x="16" y="272"/>
      <point x="78" y="216"/>
    </contour>
    <component base="e" xOffset="110"/>
  </outline>
</glyph>
<glyph name="Chedescenderabkhasian-cy" format="2">
  <advance width="890"/>
  <unicode hex="04BE"/>
  <anchor x="519.0" y="720.0" name="top"/>
  <anchor x="524.0" y="-20.0" name="bottom"/>
  <outline>
    <contour>
      <point x="464" y="-160" type="line"/>
      <point x="598" y="-160" type="line"/>
      <point x="598" y="40" type="line"/>
      <point x="464" y="40" type="line"/>
    </contour>
    <component base="Cheabkhasian-cy"/>
  </outline>
</glyph>
<glyph name="Kahook-cy" format="2">
  <advance width="670"/>
  <unicode hex="04C3"/>
  <outline>
    <contour>
      <point x="204" y="0" type="line"/>
      <point x="204" y="720" type="line"/>
      <point x="58" y="720" type="line"/>
      <point x="58" y="0" type="line"/>
    </contour>
    <contour>
      <point x="289" y="-180" type="line"/>
      <point x="318" y="-180" type="line" smooth="yes"/>
      <point x="414" y="-180"/>
      <point x="538" y="-116"/>
      <point x="610" y="20"/>
      <point x="610" y="120" type="qcurve" smooth="yes"/>
      <point x="610" y="206"/>
      <point x="553" y="342"/>
      <point x="425" y="434"/>
      <point x="323" y="434" type="qcurve" smooth="yes"/>
      <point x="158" y="434" type="line"/>
      <point x="158" y="309" type="line"/>
      <point x="294" y="309" type="line" smooth="yes"/>
      <point x="354" y="309"/>
      <point x="428" y="259"/>
      <point x="460" y="180"/>
      <point x="460" y="120" type="qcurve" smooth="yes"/>
      <point x="460" y="64"/>
      <point x="430" y="-16"/>
      <point x="368" y="-60"/>
      <point x="306" y="-60" type="qcurve" smooth="yes"/>
      <point x="289" y="-60" type="line"/>
    </contour>
    <contour>
      <point x="232" y="394" type="line"/>
      <point x="387" y="394" type="line"/>
      <point x="630" y="720" type="line"/>
      <point x="468" y="720" type="line"/>
    </contour>
  </outline>
</glyph>
<glyph name="Chekhakassian-cy" format="2">
  <advance width="640"/>
  <unicode hex="04CB"/>
  <anchor x="322" y="720" name="top"/>
  <outline>
    <contour>
      <point x="348" y="-160" type="line"/>
      <point x="482" y="-160" type="line"/>
      <point x="482" y="0" type="line"/>
      <point x="582" y="0" type="line"/>
      <point x="582" y="120" type="line"/>
      <point x="348" y="120" type="line"/>
    </contour>
    <component base="Che-cy"/>
  </outline>
</glyph>
<glyph name="obarred-cy" format="2">
  <advance width="560"/>
  <unicode hex="04E9"/>
  <anchor x="280" y="0" name="bottom"/>
  <anchor x="364" y="10" name="ogonek"/>
  <anchor x="270" y="500" name="top"/>
  <outline>
    <contour>
      <point x="106" y="212" type="line"/>
      <point x="466" y="212" type="line"/>
      <point x="466" y="292" type="line"/>
      <point x="106" y="292" type="line"/>
    </contour>
    <component base="o"/>
  </outline>
</glyph>
<glyph name="gedescender-cy" format="2">
  <advance width="420"/>
  <unicode hex="04F7"/>
  <anchor x="170" y="240" name="center"/>
  <anchor x="240" y="500" name="top"/>
  <outline>
    <contour>
      <point x="140" y="-160" type="line"/>
      <point x="270" y="-160" type="line"/>
      <point x="270" y="110" type="line"/>
      <point x="56" y="110" type="line"/>
      <point x="56" y="0" type="line"/>
      <point x="140" y="0" type="line"/>
    </contour>
    <component base="ge-cy"/>
  </outline>
</glyph>
<glyph name="Hahook-cy" format="2">
  <advance width="690"/>
  <unicode hex="04FC"/>
  <outline>
    <contour>
      <point x="424" y="-200" type="line"/>
      <point x="521" y="-200" type="line" smooth="yes"/>
      <point x="593" y="-200"/>
      <point x="674" y="-122"/>
      <point x="674" y="-53" type="qcurve" smooth="yes"/>
      <point x="674" y="-17"/>
      <point x="643" y="64"/>
      <point x="604" y="124" type="qcurve" smooth="yes"/>
      <point x="447" y="366" type="line"/>
      <point x="667" y="720" type="line"/>
      <point x="517" y="720" type="line"/>
      <point x="354" y="468" type="line"/>
      <point x="193" y="720" type="line"/>
      <point x="20" y="720" type="line"/>
      <point x="253" y="363" type="line"/>
      <point x="16" y="0" type="line"/>
      <point x="166" y="0" type="line"/>
      <point x="352" y="270" type="line"/>
      <point x="480" y="71" type="line" smooth="yes"/>
      <point x="502" y="36"/>
      <point x="529" y="-12"/>
      <point x="529" y="-37" type="qcurve" smooth="yes"/>
      <point x="529" y="-61"/>
      <point x="505" y="-88"/>
      <point x="477" y="-88" type="qcurve" smooth="yes"/>
      <point x="424" y="-88" type="line"/>
    </contour>
  </outline>
</glyph>
<glyph name="emdash" format="2">
  <advance width="980"/>
  <unicode hex="2014"/>
  <outline>
    <contour>
      <point x="50" y="200" type="line"/>
      <point x="930" y="200" type="line"/>
      <point x="930" y="320" type="line"/>
      <point x="50" y="320" type="line"/>
    </contour>
  </outline>
</glyph>
<glyph name="dagger" format="2">
  <advance width="520"/>
  <unicode hex="2020"/>
  <outline>
    <contour>
      <point x="190" y="100" type="line"/>
      <point x="330" y="100" type="line"/>
      <point x="330" y="440" type="line"/>
      <point x="500" y="440" type="line"/>
      <point x="500" y="560" type="line"/>
      <point x="330" y="560" type="line"/>
      <point x="330" y="720" type="line"/>
      <point x="190" y="720" type="line"/>
      <point x="190" y="560" type="line"/>
      <point x="20" y="560" type="line"/>
      <point x="20" y="440" type="line"/>
      <point x="190" y="440" type="line"/>
    </contour>
  </outline>
</glyph>
<glyph name="triangularbullet" format="2">
  <advance width="440"/>
  <unicode hex="2023"/>
  <outline>
    <contour>
      <point x="100" y="86" type="line"/>
      <point x="380" y="260" type="line"/>
      <point x="100" y="434" type="line"/>
    </contour>
  </outline>
</glyph>
<glyph name="ellipsis" format="2">
  <advance width="740"/>
  <unicode hex="2026"/>
  <outline>
    <contour>
      <point x="597" y="-6" type="qcurve" smooth="yes"/>
      <point x="636" y="-6"/>
      <point x="684" y="41"/>
      <point x="684" y="80" type="qcurve" smooth="yes"/>
      <point x="684" y="98" type="line" smooth="yes"/>
      <point x="684" y="137"/>
      <point x="636" y="184"/>
      <point x="597" y="184" type="qcurve" smooth="yes"/>
      <point x="558" y="184"/>
      <point x="510" y="137"/>
      <point x="510" y="98" type="qcurve" smooth="yes"/>
      <point x="510" y="80" type="line" smooth="yes"/>
      <point x="510" y="41"/>
      <point x="558" y="-6"/>
    </contour>
    <contour>
      <point x="143" y="-6" type="qcurve" smooth="yes"/>
      <point x="182" y="-6"/>
      <point x="230" y="41"/>
      <point x="230" y="80" type="qcurve" smooth="yes"/>
      <point x="230" y="98" type="line" smooth="yes"/>
      <point x="230" y="137"/>
      <point x="182" y="184"/>
      <point x="143" y="184" type="qcurve" smooth="yes"/>
      <point x="104" y="184"/>
      <point x="56" y="137"/>
      <point x="56" y="98" type="qcurve" smooth="yes"/>
      <point x="56" y="80" type="line" smooth="yes"/>
      <point x="56" y="41"/>
      <point x="104" y="-6"/>
    </contour>
    <contour>
      <point x="370" y="-6" type="qcurve" smooth="yes"/>
      <point x="409" y="-6"/>
      <point x="457" y="41"/>
      <point x="457" y="80" type="qcurve" smooth="yes"/>
      <point x="457" y="98" type="line" smooth="yes"/>
      <point x="457" y="137"/>
      <point x="409" y="184"/>
      <point x="370" y="184" type="qcurve" smooth="yes"/>
      <point x="331" y="184"/>
      <point x="283" y="137"/>
      <point x="283" y="98" type="qcurve" smooth="yes"/>
      <point x="283" y="80" type="line" smooth="yes"/>
      <point x="283" y="41"/>
      <point x="331" y="-6"/>
    </contour>
  </outline>
</glyph>
<glyph name="minute" format="2">
  <advance width="320"/>
  <unicode hex="2032"/>
  <anchor x="22" y="720" name="_topright"/>
  <outline>
    <contour>
      <point x="78" y="400" type="line"/>
      <point x="202" y="400" type="line"/>
      <point x="242" y="720" type="line"/>
      <point x="118" y="720" type="line"/>
    </contour>
  </outline>
</glyph>
<glyph name="interrobang" format="2">
  <advance width="540"/>
  <unicode hex="203D"/>
  <outline>
    <contour>
      <point x="204" y="240" type="line"/>
      <point x="326" y="240" type="line"/>
      <point x="326" y="270" type="line" smooth="yes"/>
      <point x="326" y="302"/>
      <point x="362" y="347"/>
      <point x="469" y="421"/>
      <point x="512" y="496"/>
      <point x="512" y="542" type="qcurve" smooth="yes"/>
      <point x="512" y="598"/>
      <point x="454" y="684"/>
      <point x="348" y="732"/>
      <point x="270" y="732" type="qcurve" smooth="yes"/>
      <point x="194" y="732"/>
      <point x="84" y="680"/>
      <point x="20" y="582"/>
      <point x="20" y="510" type="qcurve"/>
      <point x="162" y="510" type="line"/>
      <point x="162" y="552"/>
      <point x="192" y="596"/>
      <point x="236" y="614"/>
      <point x="264" y="614" type="qcurve" smooth="yes"/>
      <point x="292" y="614"/>
      <point x="336" y="598"/>
      <point x="362" y="556"/>
      <point x="362" y="528" type="qcurve" smooth="yes"/>
      <point x="362" y="508"/>
      <point x="352" y="480"/>
      <point x="330" y="447"/>
      <point x="310" y="416"/>
      <point x="304" y="400" type="qcurve"/>
      <point x="304" y="550" type="line"/>
      <point x="204" y="550" type="line"/>
    </contour>
    <component base="period" xOffset="110"/>
  </outline>
</glyph>
<glyph name="hyphenbullet" format="2">
  <advance width="460"/>
  <unicode hex="2043"/>
  <outline>
    <contour>
      <point x="60" y="190" type="line"/>
      <point x="400" y="190" type="line"/>
      <point x="400" y="330" type="line"/>
      <point x="60" y="330" type="line"/>
    </contour>
  </outline>
</glyph>
<glyph name="fraction" format="2">
  <advance width="200"/>
  <unicode hex="2044"/>
  <outline>
    <contour>
      <point x="-200" y="0" type="line"/>
      <point x="-78" y="0" type="line"/>
      <point x="400" y="720" type="line"/>
      <point x="278" y="720" type="line"/>
    </contour>
  </outline>
</glyph>
<glyph name="franc" format="2">
  <advance width="600"/>
  <unicode hex="20A3"/>
  <outline>
    <contour>
      <point x="130" y="0" type="line"/>
      <point x="270" y="0" type="line"/>
      <point x="270" y="160" type="line"/>
      <point x="431" y="160" type="line"/>
      <point x="431" y="240" type="line"/>
      <point x="130" y="240" type="line"/>
      <point x="130" y="160" type="line"/>
      <point x="270" y="160" type="line"/>
      <point x="270" y="325" type="line"/>
      <point x="500" y="325" type="line"/>
      <point x="500" y="445" type="line"/>
      <point x="270" y="445" type="line"/>
      <point x="270" y="600" type="line"/>
      <point x="540" y="600" type="line"/>
      <point x="540" y="720" type="line"/>
      <point x="130" y="720" type="line"/>
      <point x="130" y="240" type="line"/>
      <point x="60" y="240" type="line"/>
      <point x="60" y="160" type="line"/>
      <point x="130" y="160" type="line"/>
    </contour>
  </outline>
</glyph>
<glyph name="euro" format="2">
  <advance width="600"/>
  <unicode hex="20AC"/>
  <outline>
    <contour>
      <point x="335" y="-12" type="qcurve" smooth="yes"/>
      <point x="393" y="-12"/>
      <point x="491" y="36"/>
      <point x="548" y="138"/>
      <point x="548" y="210" type="qcurve"/>
      <point x="412" y="210" type="line"/>
      <point x="412" y="178"/>
      <point x="393" y="134"/>
      <point x="355" y="108"/>
      <point x="325" y="108" type="qcurve" smooth="yes"/>
      <point x="285" y="108"/>
      <point x="237" y="164"/>
      <point x="215" y="260"/>
      <point x="215" y="360" type="qcurve" smooth="yes"/>
      <point x="215" y="460"/>
      <point x="237" y="556"/>
      <point x="285" y="612"/>
      <point x="325" y="612" type="qcurve" smooth="yes"/>
      <point x="355" y="612"/>
      <point x="393" y="586"/>
      <point x="412" y="542"/>
      <point x="412" y="510" type="qcurve"/>
      <point x="548" y="510" type="line"/>
      <point x="548" y="582"/>
      <point x="491" y="684"/>
      <point x="393" y="732"/>
      <point x="335" y="732" type="qcurve" smooth="yes"/>
      <point x="253" y="732"/>
      <point x="145" y="658"/>
      <point x="80" y="500"/>
      <point x="80" y="360" type="qcurve" smooth="yes"/>
      <point x="80" y="220"/>
      <point x="145" y="62"/>
      <point x="253" y="-12"/>
    </contour>
    <contour>
      <point x="20" y="250" type="line"/>
      <point x="360" y="250" type="line"/>
      <point x="360" y="330" type="line"/>
      <point x="20" y="330" type="line"/>
    </contour>
    <contour>
      <point x="20" y="390" type="line"/>
      <point x="360" y="390" type="line"/>
      <point x="360" y="470" type="line"/>
      <point x="20" y="470" type="line"/>
    </contour>
  </outline>
</glyph>
<glyph name="ruble" format="2">
  <advance width="600"/>
  <unicode hex="20BD"/>
  <outline>
    <contour>
      <point x="100" y="0" type="line"/>
      <point x="240" y="0" type="line"/>
      <point x="240" y="300" type="line"/>
      <point x="319" y="300" type="line" smooth="yes"/>
      <point x="399" y="300"/>
      <point x="510" y="350"/>
      <point x="570" y="450"/>
      <point x="570" y="510" type="qcurve" smooth="yes"/>
      <point x="570" y="570"/>
      <point x="510" y="670"/>
      <point x="399" y="720"/>
      <point x="319" y="720" type="qcurve" smooth="yes"/>
      <point x="100" y="720" type="line"/>
    </contour>
    <contour>
      <point x="40" y="160" type="line"/>
      <point x="491" y="160" type="line"/>
      <point x="491" y="240" type="line"/>
      <point x="40" y="240" type="line"/>
    </contour>
    <contour>
      <point x="240" y="420" type="line"/>
      <point x="240" y="600" type="line"/>
      <point x="322" y="600" type="line" smooth="yes"/>
      <point x="358" y="600"/>
      <point x="402" y="581"/>
      <point x="426" y="538"/>
      <point x="426" y="510" type="qcurve" smooth="yes"/>
      <point x="426" y="482"/>
      <point x="402" y="441"/>
      <point x="358" y="420"/>
      <point x="322" y="420" type="qcurve" smooth="yes"/>
    </contour>
  </outline>
</glyph>
<glyph name="bitcoin" format="2">
  <advance width="600"/>
  <unicode hex="20BF"/>
  <outline>
    <contour>
      <point x="70" y="0" type="line"/>
      <point x="291" y="0" type="line" smooth="yes"/>
      <point x="391" y="0"/>
      <point x="490" y="51"/>
      <point x="544" y="144"/>
      <point x="544" y="200" type="qcurve" smooth="yes"/>
      <point x="544" y="240"/>
      <point x="519" y="309"/>
      <point x="454" y="362"/>
      <point x="408" y="372" type="qcurve"/>
      <point x="454" y="384"/>
      <point x="514" y="433"/>
      <point x="536" y="492"/>
      <point x="536" y="528" type="qcurve" smooth="yes"/>
      <point x="536" y="580"/>
      <point x="491" y="667"/>
      <point x="394" y="720"/>
      <point x="298" y="720" type="qcurve" smooth="yes"/>
      <point x="70" y="720" type="line"/>
    </contour>
    <contour>
      <point x="226" y="-80" type="line"/>
      <point x="326" y="-80" type="line"/>
      <point x="326" y="20" type="line"/>
      <point x="226" y="20" type="line"/>
    </contour>
    <contour>
      <point x="210" y="116" type="line"/>
      <point x="210" y="302" type="line"/>
      <point x="298" y="302" type="line" smooth="yes"/>
      <point x="328" y="302"/>
      <point x="372" y="285"/>
      <point x="404" y="241"/>
      <point x="404" y="209" type="qcurve" smooth="yes"/>
      <point x="404" y="177"/>
      <point x="372" y="133"/>
      <point x="328" y="116"/>
      <point x="298" y="116" type="qcurve" smooth="yes"/>
    </contour>
    <contour>
      <point x="210" y="424" type="line"/>
      <point x="210" y="604" type="line"/>
      <point x="298" y="604" type="line" smooth="yes"/>
      <point x="328" y="604"/>
      <point x="368" y="586"/>
      <point x="396" y="542"/>
      <point x="396" y="514" type="qcurve" smooth="yes"/>
      <point x="396" y="486"/>
      <point x="368" y="442"/>
      <point x="328" y="424"/>
      <point x="298" y="424" type="qcurve" smooth="yes"/>
    </contour>
    <contour>
      <point x="226" y="700" type="line"/>
      <point x="326" y="700" type="line"/>
      <point x="326" y="800" type="line"/>
      <point x="226" y="800" type="line"/>
    </contour>
  </outline>
</glyph>
<glyph name="published" format="2">
  <advance width="860"/>
  <unicode hex="2117"/>
  <anchor x="430" y="360" name="center"/>
  <outline>
    <contour>
      <point x="295" y="170" type="line"/>
      <point x="405" y="170" type="line"/>
      <point x="405" y="296" type="line"/>
      <point x="456" y="296" type="line" smooth="yes"/>
      <point x="528" y="296"/>
      <point x="605" y="367"/>
      <point x="605" y="423" type="qcurve" smooth="yes"/>
      <point x="605" y="479"/>
      <point x="528" y="550"/>
      <point x="456" y="550" type="qcurve" smooth="yes"/>
      <point x="295" y="550" type="line"/>
    </contour>
    <contour>
      <point x="405" y="382" type="line"/>
      <point x="405" y="464" type="line"/>
      <point x="446" y="464" type="line" smooth="yes"/>
      <point x="470" y="464"/>
      <point x="495" y="443"/>
      <point x="495" y="423" type="qcurve" smooth="yes"/>
      <point x="495" y="403"/>
      <point x="470" y="382"/>
      <point x="446" y="382" type="qcurve" smooth="yes"/>
    </contour>
    <component base="numCircle"/>
  </outline>
</glyph>
<glyph name="upArrow" format="2">
  <advance width="700"/>
  <unicode hex="2191"/>
  <outline>
    <contour>
      <point x="280" y="40" type="line"/>
      <point x="420" y="40" type="line"/>
      <point x="420" y="466" type="line"/>
      <point x="556" y="330" type="line"/>
      <point x="648" y="422" type="line"/>
      <point x="350" y="720" type="line"/>
      <point x="52" y="422" type="line"/>
      <point x="144" y="330" type="line"/>
      <point x="280" y="466" type="line"/>
    </contour>
  </outline>
</glyph>
<glyph name="product" format="2">
  <advance width="800"/>
  <unicode hex="220F"/>
  <outline>
    <contour>
      <point x="132" y="-200" type="line"/>
      <point x="282" y="-200" type="line"/>
      <point x="282" y="590" type="line"/>
      <point x="518" y="590" type="line"/>
      <point x="518" y="-200" type="line"/>
      <point x="668" y="-200" type="line"/>
      <point x="668" y="590" type="line"/>
      <point x="780" y="590" type="line"/>
      <point x="780" y="720" type="line"/>
      <point x="20" y="720" type="line"/>
      <point x="20" y="590" type="line"/>
      <point x="132" y="590" type="line"/>
    </contour>
  </outline>
</glyph>
<glyph name="summation" format="2">
  <advance width="620"/>
  <unicode hex="2211"/>
  <outline>
    <contour>
      <point x="50" y="-200" type="line"/>
      <point x="570" y="-200" type="line"/>
      <point x="570" y="-70" type="line"/>
      <point x="210" y="-70" type="line"/>
      <point x="465" y="221" type="line"/>
      <point x="465" y="299" type="line"/>
      <point x="240" y="590" type="line"/>
      <point x="570" y="590" type="line"/>
      <point x="570" y="720" type="line"/>
      <point x="50" y="720" type="line"/>
      <point x="50" y="597" type="line"/>
      <point x="322" y="240" type="line"/>
      <point x="50" y="-77" type="line"/>
    </contour>
  </outline>
</glyph>
<glyph name="divisionslash" format="2">
  <advance width="600"/>
  <unicode hex="2215"/>
  <outline>
    <contour>
      <point x="50" y="0" type="line"/>
      <point x="189" y="0" type="line"/>
      <point x="550" y="720" type="line"/>
      <point x="411" y="720" type="line"/>
    </contour>
  </outline>
</glyph>
<glyph name="diameterSign" format="2">
  <advance width="600"/>
  <unicode hex="2300"/>
  <outline>
    <contour>
      <point x="79" y="0" type="line"/>
      <point x="180" y="0" type="line"/>
      <point x="521" y="720" type="line"/>
      <point x="420" y="720" type="line"/>
    </contour>
    <contour>
      <point x="301" y="110" type="qcurve"/>
      <point x="405" y="110"/>
      <point x="550" y="256"/>
      <point x="550" y="360" type="qcurve"/>
      <point x="550" y="464"/>
      <point x="405" y="610"/>
      <point x="301" y="610" type="qcurve"/>
      <point x="197" y="610"/>
      <point x="50" y="464"/>
      <point x="50" y="360" type="qcurve"/>
      <point x="50" y="256"/>
      <point x="197" y="110"/>
    </contour>
    <contour>
      <point x="300" y="234" type="qcurve"/>
      <point x="246" y="234"/>
      <point x="174" y="306"/>
      <point x="174" y="360" type="qcurve"/>
      <point x="174" y="414"/>
      <point x="246" y="486"/>
      <point x="300" y="486" type="qcurve"/>
      <point x="354" y="486"/>
      <point x="426" y="414"/>
      <point x="426" y="360" type="qcurve"/>
      <point x="426" y="306"/>
      <point x="354" y="234"/>
    </contour>
  </outline>
</glyph>
<glyph name="upBlackTriangle" format="2">
  <advance width="920"/>
  <unicode hex="25B2"/>
  <outline>
    <contour>
      <point x="50" y="0" type="line"/>
      <point x="870" y="0" type="line"/>
      <point x="460" y="720" type="line"/>
    </contour>
  </outline>
</glyph>
<glyph name="whiteCircle" format="2">
  <advance width="860"/>
  <unicode hex="25CB"/>
  <outline>
    <contour>
      <point x="430" y="-30" type="qcurve" smooth="yes"/>
      <point x="539" y="-30"/>
      <point x="718" y="72"/>
      <point x="820" y="252"/>
      <point x="820" y="360" type="qcurve" smooth="yes"/>
      <point x="820" y="469"/>
      <point x="714" y="644"/>
      <point x="539" y="750"/>
      <point x="430" y="750" type="qcurve" smooth="yes"/>
      <point x="320" y="750"/>
      <point x="142" y="646"/>
      <point x="40" y="467"/>
      <point x="40" y="360" type="qcurve" smooth="yes"/>
      <point x="40" y="250"/>
      <point x="144" y="72"/>
      <point x="323" y="-30"/>
    </contour>
    <contour>
      <point x="430" y="84" type="qcurve" smooth="yes"/>
      <point x="354" y="84"/>
      <point x="226" y="155"/>
      <point x="154" y="282"/>
      <point x="154" y="360" type="qcurve" smooth="yes"/>
      <point x="154" y="440"/>
      <point x="226" y="566"/>
      <point x="354" y="636"/>
      <point x="430" y="636" type="qcurve" smooth="yes"/>
      <point x="508" y="636"/>
      <point x="635" y="564"/>
      <point x="706" y="436"/>
      <point x="706" y="360" type="qcurve" smooth="yes"/>
      <point x="706" y="282"/>
      <point x="634" y="155"/>
      <point x="506" y="84"/>
    </contour>
  </outline>
</glyph>
<glyph name="blackCircle" format="2">
  <advance width="860"/>
  <unicode hex="25CF"/>
  <anchor x="430" y="360" name="center"/>
  <outline>
    <contour>
      <point x="430" y="-30" type="qcurve" smooth="yes"/>
      <point x="539" y="-30"/>
      <point x="628" y="21" type="qcurve" smooth="yes"/>
      <point x="718" y="72"/>
      <point x="820" y="252"/>
      <point x="820" y="360" type="qcurve" smooth="yes"/>
      <point x="820" y="469"/>
      <point x="769" y="559" type="qcurve" smooth="yes"/>
      <point x="718" y="648"/>
      <point x="539" y="750"/>
      <point x="430" y="750" type="qcurve" smooth="yes"/>
      <point x="320" y="750"/>
      <point x="231" y="698" type="qcurve" smooth="yes"/>
      <point x="142" y="646"/>
      <point x="40" y="467"/>
      <point x="40" y="360" type="qcurve" smooth="yes"/>
      <point x="40" y="250"/>
      <point x="92" y="161" type="qcurve" smooth="yes"/>
      <point x="144" y="72"/>
      <point x="323" y="-30"/>
    </contour>
  </outline>
</glyph>
<glyph name="heavenTrigram" format="2">
  <advance width="850"/>
  <unicode hex="2630"/>
  <outline>
    <contour>
      <point x="75" y="590" type="line"/>
      <point x="775" y="590" type="line"/>
      <point x="775" y="720" type="line"/>
      <point x="75" y="720" type="line"/>
    </contour>
    <contour>
      <point x="75" y="0" type="line"/>
      <point x="775" y="0" type="line"/>
      <point x="775" y="130" type="line"/>
      <point x="75" y="130" type="line"/>
    </contour>
    <contour>
      <point x="75" y="295" type="line"/>
      <point x="775" y="295" type="line"/>
      <point x="775" y="425" type="line"/>
      <point x="75" y="425" type="line"/>
    </contour>
  </outline>
</glyph>
<glyph name="whiteFourPointedStar" format="2">
  <advance width="760"/>
  <unicode hex="2727"/>
  <outline>
    <contour>
      <point x="380" y="-12" type="qcurve"/>
      <point x="408" y="136"/>
      <point x="604" y="332"/>
      <point x="752" y="360" type="qcurve"/>
      <point x="604" y="388"/>
      <point x="408" y="584"/>
      <point x="380" y="732" type="qcurve"/>
      <point x="352" y="584"/>
      <point x="156" y="388"/>
      <point x="8" y="360" type="qcurve"/>
      <point x="156" y="332"/>
      <point x="352" y="136"/>
    </contour>
    <contour>
      <point x="380" y="233" type="qcurve"/>
      <point x="356" y="277"/>
      <point x="297" y="336"/>
      <point x="253" y="360" type="qcurve"/>
      <point x="297" y="384"/>
      <point x="356" y="443"/>
      <point x="380" y="487" type="qcurve"/>
      <point x="404" y="443"/>
      <point x="463" y="384"/>
      <point x="507" y="360" type="qcurve"/>
      <point x="463" y="336"/>
      <point x="404" y="277"/>
    </contour>
  </outline>
</glyph>
<glyph name="stressOutlinedWhiteStar" format="2">
  <advance width="800"/>
  <unicode hex="2729"/>
  <outline>
    <contour>
      <point x="157" y="-12" type="line"/>
      <point x="400" y="163" type="line"/>
      <point x="642" y="-12" type="line"/>
      <point x="549" y="272" type="line"/>
      <point x="790" y="448" type="line"/>
      <point x="493" y="448" type="line"/>
      <point x="400" y="732" type="line"/>
      <point x="306" y="448" type="line"/>
      <point x="10" y="448" type="line"/>
      <point x="251" y="272" type="line"/>
    </contour>
    <contour>
      <point x="314" y="205" type="line"/>
      <point x="347" y="306" type="line"/>
      <point x="260" y="369" type="line"/>
      <point x="367" y="369" type="line"/>
      <point x="400" y="470" type="line"/>
      <point x="432" y="369" type="line"/>
      <point x="540" y="369" type="line"/>
      <point x="453" y="306" type="line"/>
      <point x="486" y="205" type="line"/>
      <point x="400" y="268" type="line"/>
    </contour>
  </outline>
</glyph>
<glyph name="heavyBlackHeart" format="2">
  <advance width="920"/>
  <unicode hex="2764"/>
  <outline>
    <contour>
      <point x="460" y="-10" type="line"/>
      <point x="708" y="250" type="line" smooth="yes"/>
      <point x="798" y="343"/>
      <point x="870" y="471"/>
      <point x="870" y="538" type="qcurve" smooth="yes"/>
      <point x="870" y="594"/>
      <point x="818" y="683"/>
      <point x="728" y="732"/>
      <point x="674" y="732" type="qcurve" smooth="yes"/>
      <point x="599" y="732"/>
      <point x="487" y="645"/>
      <point x="460" y="564" type="qcurve"/>
      <point x="433" y="645"/>
      <point x="321" y="732"/>
      <point x="246" y="732" type="qcurve" smooth="yes"/>
      <point x="192" y="732"/>
      <point x="102" y="683"/>
      <point x="50" y="594"/>
      <point x="50" y="538" type="qcurve" smooth="yes"/>
      <point x="50" y="471"/>
      <point x="123" y="344"/>
      <point x="212" y="250" type="qcurve" smooth="yes"/>
    </contour>
  </outline>
</glyph>
<glyph name="Saltillo" format="2">
  <advance width="260"/>
  <unicode hex="A78B"/>
  <outline>
    <contour>
      <point x="55" y="240" type="line"/>
      <point x="205" y="240" type="line"/>
      <point x="205" y="580" type="line"/>
      <point x="205" y="720" type="line"/>
      <point x="55" y="720" type="line"/>
      <point x="55" y="580" type="line"/>
    </contour>
  </outline>
</glyph>
<glyph name="saltillo" format="2">
  <advance width="214"/>
  <unicode hex="A78C"/>
  <outline>
    <contour>
      <point x="36" y="380" type="line"/>
      <point x="178" y="380" type="line"/>
      <point x="178" y="620" type="line"/>
      <point x="178" y="720" type="line"/>
      <point x="36" y="720" type="line"/>
      <point x="36" y="620" type="line"/>
    </contour>
  </outline>
</glyph>
<glyph name="fl" format="2">
  <advance width="637"/>
  <unicode hex="FB02"/>
  <anchor x="330" y="0" name="caret_1"/>
  <outline>
    <contour>
      <point x="98" y="0" type="line"/>
      <point x="240" y="0" type="line"/>
      <point x="240" y="380" type="line"/>
      <point x="344" y="380" type="line"/>
      <point x="344" y="500" type="line"/>
      <point x="240" y="500" type="line"/>
      <point x="240" y="560" type="line" smooth="yes"/>
      <point x="240" y="584"/>
      <point x="264" y="608"/>
      <point x="288" y="608" type="qcurve" smooth="yes"/>
      <point x="438" y="608" type="line"/>
      <point x="438" y="0" type="line"/>
      <point x="580" y="0" type="line"/>
      <point x="580" y="720" type="line"/>
      <point x="246" y="720" type="line" smooth="yes"/>
      <point x="172" y="720"/>
      <point x="98" y="652"/>
      <point x="98" y="580" type="qcurve" smooth="yes"/>
      <point x="98" y="500" type="line"/>
      <point x="20" y="500" type="line"/>
      <point x="20" y="380" type="line"/>
      <point x="98" y="380" type="line"/>
    </contour>
  </outline>
</glyph>
<glyph name="Ef-cy.loclBGR" format="2">
  <advance width="900"/>
  <outline>
    <contour>
      <point x="375" y="-80" type="line"/>
      <point x="525" y="-80" type="line"/>
      <point x="525" y="0" type="line"/>
      <point x="626" y="3"/>
      <point x="779" y="96"/>
      <point x="860" y="240"/>
      <point x="860" y="360" type="qcurve" smooth="yes"/>
      <point x="860" y="480"/>
      <point x="779" y="624"/>
      <point x="628" y="717"/>
      <point x="525" y="720" type="qcurve"/>
      <point x="525" y="800" type="line"/>
      <point x="375" y="800" type="line"/>
      <point x="375" y="720" type="line"/>
      <point x="274" y="717"/>
      <point x="121" y="624"/>
      <point x="40" y="480"/>
      <point x="40" y="360" type="qcurve" smooth="yes"/>
      <point x="40" y="240"/>
      <point x="121" y="96"/>
      <point x="274" y="3"/>
      <point x="375" y="0" type="qcurve"/>
    </contour>
    <contour>
      <point x="375" y="128" type="line"/>
      <point x="311" y="128"/>
      <point x="229" y="194"/>
      <point x="194" y="288"/>
      <point x="194" y="360" type="qcurve" smooth="yes"/>
      <point x="194" y="432"/>
      <point x="229" y="526"/>
      <point x="311" y="592"/>
      <point x="375" y="592" type="qcurve"/>
    </contour>
    <contour>
      <point x="525" y="128" type="qcurve"/>
      <point x="525" y="592" type="line"/>
      <point x="589" y="592"/>
      <point x="671" y="526"/>
      <point x="706" y="432"/>
      <point x="706" y="360" type="qcurve" smooth="yes"/>
      <point x="706" y="288"/>
      <point x="671" y="194"/>
      <point x="589" y="128"/>
    </contour>
  </outline>
</glyph>
<glyph name="Gedescender-cy.ss02" format="2">
  <advance width="520"/>
  <anchor x="280" y="720" name="top"/>
  <anchor x="390" y="360" name="dot"/>
  <anchor x="127" y="0" name="bottom"/>
  <anchor x="350" y="0" name="bottomright"/>
  <anchor x="180" y="360" name="center"/>
  <outline>
    <contour>
      <point x="158" y="-160" type="line"/>
      <point x="292" y="-160" type="line"/>
      <point x="292" y="120" type="line"/>
      <point x="58" y="120" type="line"/>
      <point x="58" y="0" type="line"/>
      <point x="158" y="0" type="line"/>
    </contour>
    <component base="Ge-cy.ss02"/>
  </outline>
</glyph>
<glyph name="Ka-cy.ss01" format="2">
  <advance width="700"/>
  <anchor x="160" y="580" name="center"/>
  <anchor x="317" y="720" name="top"/>
  <outline>
    <contour>
      <point x="58" y="0" type="line"/>
      <point x="204" y="0" type="line"/>
      <point x="204" y="720" type="line"/>
      <point x="58" y="720" type="line"/>
    </contour>
    <contour>
      <point x="120" y="428" type="line"/>
      <point x="120" y="300" type="line"/>
      <point x="342" y="300" type="line" smooth="yes"/>
      <point x="395" y="300"/>
      <point x="438" y="258"/>
      <point x="438" y="210" type="qcurve" smooth="yes"/>
      <point x="438" y="110" type="line" smooth="yes"/>
      <point x="438" y="0"/>
      <point x="558" y="0" type="qcurve" smooth="yes"/>
      <point x="684" y="0" type="line"/>
      <point x="684" y="110" type="line"/>
      <point x="620" y="110" type="line" smooth="yes"/>
      <point x="584" y="110"/>
      <point x="584" y="150" type="qcurve" smooth="yes"/>
      <point x="584" y="240" type="line" smooth="yes"/>
      <point x="584" y="294"/>
      <point x="538" y="359"/>
      <point x="505" y="367" type="qcurve"/>
      <point x="535" y="374"/>
      <point x="580" y="432"/>
      <point x="580" y="480" type="qcurve" smooth="yes"/>
      <point x="580" y="570" type="line" smooth="yes"/>
      <point x="580" y="610"/>
      <point x="616" y="610" type="qcurve" smooth="yes"/>
      <point x="680" y="610" type="line"/>
      <point x="680" y="720" type="line"/>
      <point x="556" y="720" type="line" smooth="yes"/>
      <point x="434" y="720"/>
      <point x="434" y="600" type="qcurve" smooth="yes"/>
      <point x="434" y="501" type="line" smooth="yes"/>
      <point x="434" y="463"/>
      <point x="392" y="428"/>
      <point x="348" y="428" type="qcurve" smooth="yes"/>
    </contour>
  </outline>
</glyph>
<glyph name="Kadescender-cy.ss01" format="2">
  <advance width="700"/>
  <anchor x="160" y="580" name="center"/>
  <anchor x="317" y="720" name="top"/>
  <outline>
    <contour>
      <point x="542" y="-160" type="line"/>
      <point x="676" y="-160" type="line"/>
      <point x="676" y="120" type="line"/>
      <point x="574" y="120" type="line"/>
      <point x="574" y="0" type="line"/>
      <point x="542" y="0" type="line"/>
    </contour>
    <component base="Ka-cy.ss01"/>
  </outline>
</glyph>
<glyph name="Kaverticalstroke-cy.ss01" format="2">
  <advance width="720"/>
  <outline>
    <contour>
      <point x="594" y="0" type="qcurve" smooth="yes"/>
      <point x="700" y="0" type="line"/>
      <point x="700" y="120" type="line"/>
      <point x="656" y="120" type="line" smooth="yes"/>
      <point x="620" y="120"/>
      <point x="620" y="160" type="qcurve" smooth="yes"/>
      <point x="620" y="240" type="line" smooth="yes"/>
      <point x="620" y="294"/>
      <point x="564" y="359"/>
      <point x="511" y="367" type="qcurve"/>
      <point x="561" y="374"/>
      <point x="616" y="432"/>
      <point x="616" y="480" type="qcurve" smooth="yes"/>
      <point x="616" y="560" type="line" smooth="yes"/>
      <point x="616" y="600"/>
      <point x="652" y="600" type="qcurve" smooth="yes"/>
      <point x="696" y="600" type="line"/>
      <point x="696" y="720" type="line"/>
      <point x="592" y="720" type="line" smooth="yes"/>
      <point x="470" y="720"/>
      <point x="470" y="590" type="qcurve" smooth="yes"/>
      <point x="470" y="501" type="line" smooth="yes"/>
      <point x="470" y="463"/>
      <point x="428" y="428"/>
      <point x="384" y="428" type="qcurve"/>
      <point x="112" y="428" type="line"/>
      <point x="112" y="300" type="line"/>
      <point x="378" y="300" type="line" smooth="yes"/>
      <point x="431" y="300"/>
      <point x="474" y="258"/>
      <point x="474" y="210" type="qcurve" smooth="yes"/>
      <point x="474" y="120" type="line" smooth="yes"/>
      <point x="474" y="0"/>
    </contour>
    <contour>
      <point x="58" y="0" type="line"/>
      <point x="202" y="0" type="line"/>
      <point x="202" y="720" type="line"/>
      <point x="58" y="720" type="line"/>
    </contour>
    <contour>
      <point x="288" y="150" type="line"/>
      <point x="388" y="150" type="line"/>
      <point x="388" y="590" type="line"/>
      <point x="288" y="590" type="line"/>
    </contour>
  </outline>
</glyph>
<glyph name="Lslash.ss02" format="2">
  <advance width="526"/>
  <anchor x="290" y="0" name="bottom"/>
  <anchor x="396" y="360" name="dot"/>
  <anchor x="133" y="720" name="top"/>
  <anchor x="356" y="720" name="topright"/>
  <outline>
    <contour>
      <point x="0" y="240" type="line"/>
      <point x="440" y="400" type="line"/>
      <point x="440" y="500" type="line"/>
      <point x="0" y="340" type="line"/>
    </contour>
    <component base="L.ss02" xOffset="6"/>
  </outline>
</glyph>
<glyph name="U-cy.ss02" format="2">
  <advance width="660"/>
  <anchor x="334" y="720" name="top"/>
  <outline>
    <contour>
      <point x="190" y="0" type="line"/>
      <point x="348" y="0" type="line"/>
      <point x="644" y="720" type="line"/>
      <point x="498" y="720" type="line"/>
      <point x="342" y="328" type="line"/>
      <point x="176" y="720" type="line"/>
      <point x="16" y="720" type="line"/>
      <point x="258" y="180" type="line"/>
    </contour>
  </outline>
</glyph>
<glyph name="Zhe-cy.ss01" format="2">
  <advance width="1080"/>
  <anchor x="540" y="0" name="bottom"/>
  <anchor x="540" y="720" name="top"/>
  <outline>
    <contour>
      <point x="56" y="0" type="line"/>
      <point x="162" y="0" type="line" smooth="yes"/>
      <point x="282" y="0"/>
      <point x="282" y="120" type="qcurve" smooth="yes"/>
      <point x="282" y="210" type="line" smooth="yes"/>
      <point x="282" y="258"/>
      <point x="325" y="300"/>
      <point x="378" y="300" type="qcurve" smooth="yes"/>
      <point x="468" y="300" type="line"/>
      <point x="468" y="0" type="line"/>
      <point x="612" y="0" type="line"/>
      <point x="612" y="300" type="line"/>
      <point x="702" y="300" type="line" smooth="yes"/>
      <point x="755" y="300"/>
      <point x="798" y="258"/>
      <point x="798" y="210" type="qcurve" smooth="yes"/>
      <point x="798" y="120" type="line" smooth="yes"/>
      <point x="798" y="0"/>
      <point x="918" y="0" type="qcurve" smooth="yes"/>
      <point x="1024" y="0" type="line"/>
      <point x="1024" y="120" type="line"/>
      <point x="976" y="120" type="line" smooth="yes"/>
      <point x="940" y="120"/>
      <point x="940" y="160" type="qcurve" smooth="yes"/>
      <point x="940" y="240" type="line" smooth="yes"/>
      <point x="940" y="294"/>
      <point x="886" y="359"/>
      <point x="835" y="367" type="qcurve"/>
      <point x="884" y="374"/>
      <point x="936" y="432"/>
      <point x="936" y="480" type="qcurve" smooth="yes"/>
      <point x="936" y="560" type="line" smooth="yes"/>
      <point x="936" y="600"/>
      <point x="972" y="600" type="qcurve" smooth="yes"/>
      <point x="1020" y="600" type="line"/>
      <point x="1020" y="720" type="line"/>
      <point x="916" y="720" type="line" smooth="yes"/>
      <point x="794" y="720"/>
      <point x="794" y="590" type="qcurve" smooth="yes"/>
      <point x="794" y="501" type="line" smooth="yes"/>
      <point x="794" y="463"/>
      <point x="752" y="428"/>
      <point x="708" y="428" type="qcurve" smooth="yes"/>
      <point x="612" y="428" type="line"/>
      <point x="612" y="720" type="line"/>
      <point x="468" y="720" type="line"/>
      <point x="468" y="428" type="line"/>
      <point x="372" y="428" type="line" smooth="yes"/>
      <point x="328" y="428"/>
      <point x="286" y="463"/>
      <point x="286" y="501" type="qcurve" smooth="yes"/>
      <point x="286" y="590" type="line" smooth="yes"/>
      <point x="286" y="720"/>
      <point x="164" y="720" type="qcurve" smooth="yes"/>
      <point x="60" y="720" type="line"/>
      <point x="60" y="600" type="line"/>
      <point x="104" y="600" type="line" smooth="yes"/>
      <point x="144" y="600"/>
      <point x="144" y="560" type="qcurve" smooth="yes"/>
      <point x="144" y="480" type="line" smooth="yes"/>
      <point x="144" y="432"/>
      <point x="196" y="374"/>
      <point x="245" y="367" type="qcurve"/>
      <point x="194" y="359"/>
      <point x="140" y="294"/>
      <point x="140" y="240" type="qcurve" smooth="yes"/>
      <point x="140" y="160" type="line" smooth="yes"/>
      <point x="140" y="120"/>
      <point x="100" y="120" type="qcurve" smooth="yes"/>
      <point x="56" y="120" type="line"/>
    </contour>
  </outline>
</glyph>
<glyph name="a.ss01.cv01" format="2">
  <advance width="600"/>
  <anchor x="280" y="0" name="bottom"/>
  <anchor x="564" y="0" name="ogonek"/>
  <anchor x="280" y="500" name="top"/>
  <outline>
    <contour>
      <point x="240" y="-12" type="qcurve" smooth="yes"/>
      <point x="272" y="-12"/>
      <point x="326" y="4"/>
      <point x="380" y="48"/>
      <point x="396" y="92" type="qcurve"/>
      <point x="396" y="70" type="line" smooth="yes"/>
      <point x="396" y="39"/>
      <point x="441" y="0"/>
      <point x="482" y="0" type="qcurve" smooth="yes"/>
      <point x="574" y="0" type="line"/>
      <point x="574" y="114" type="line"/>
      <point x="568" y="114" type="line" smooth="yes"/>
      <point x="547" y="114"/>
      <point x="528" y="133"/>
      <point x="528" y="154" type="qcurve" smooth="yes"/>
      <point x="528" y="500" type="line"/>
      <point x="386" y="500" type="line"/>
      <point x="386" y="424" type="line"/>
      <point x="374" y="454"/>
      <point x="324" y="494"/>
      <point x="270" y="512"/>
      <point x="240" y="512" type="qcurve" smooth="yes"/>
      <point x="176" y="512"/>
      <point x="76" y="444"/>
      <point x="24" y="330"/>
      <point x="24" y="250" type="qcurve" smooth="yes"/>
      <point x="24" y="170"/>
      <point x="76" y="56"/>
      <point x="176" y="-12"/>
    </contour>
    <contour>
      <point x="280" y="108" type="qcurve" smooth="yes"/>
      <point x="244" y="108"/>
      <point x="196" y="144"/>
      <point x="170" y="206"/>
      <point x="170" y="250" type="qcurve" smooth="yes"/>
      <point x="170" y="294"/>
      <point x="196" y="356"/>
      <point x="244" y="392"/>
      <point x="280" y="392" type="qcurve" smooth="yes"/>
      <point x="316" y="392"/>
      <point x="364" y="356"/>
      <point x="390" y="294"/>
      <point x="390" y="250" type="qcurve" smooth="yes"/>
      <point x="390" y="206"/>
      <point x="364" y="144"/>
      <point x="316" y="108"/>
    </contour>
  </outline>
</glyph>
<glyph name="angleLeft.case" format="2">
  <advance width="400"/>
  <outline>
    <contour>
      <point x="215" y="-60" type="line"/>
      <point x="358" y="-60" type="line"/>
      <point x="196" y="330" type="line"/>
      <point x="358" y="720" type="line"/>
      <point x="215" y="720" type="line"/>
      <point x="50" y="330" type="line"/>
    </contour>
  </outline>
</glyph>
<glyph name="braceleft.case" format="2">
  <advance width="400"/>
  <outline>
    <contour>
      <point x="360" y="-180" type="qcurve"/>
      <point x="360" y="-60" type="line"/>
      <point x="324" y="-60"/>
      <point x="280" y="-24"/>
      <point x="264" y="56"/>
      <point x="264" y="112" type="qcurve" smooth="yes"/>
      <point x="264" y="182" type="line" smooth="yes"/>
      <point x="264" y="234"/>
      <point x="242" y="294"/>
      <point x="196" y="330"/>
      <point x="152" y="340" type="qcurve"/>
      <point x="196" y="350"/>
      <point x="242" y="386"/>
      <point x="264" y="446"/>
      <point x="264" y="498" type="qcurve" smooth="yes"/>
      <point x="264" y="568" type="line" smooth="yes"/>
      <point x="264" y="624"/>
      <point x="280" y="704"/>
      <point x="324" y="740"/>
      <point x="360" y="740" type="qcurve"/>
      <point x="360" y="860" type="line"/>
      <point x="300" y="860"/>
      <point x="196" y="812"/>
      <point x="122" y="696"/>
      <point x="122" y="576" type="qcurve" smooth="yes"/>
      <point x="122" y="526" type="line" smooth="yes"/>
      <point x="122" y="462"/>
      <point x="96" y="414"/>
      <point x="44" y="396"/>
      <point x="12" y="396" type="qcurve"/>
      <point x="12" y="284" type="line"/>
      <point x="44" y="284"/>
      <point x="96" y="266"/>
      <point x="122" y="218"/>
      <point x="122" y="154" type="qcurve" smooth="yes"/>
      <point x="122" y="104" type="line" smooth="yes"/>
      <point x="122" y="-16"/>
      <point x="196" y="-132"/>
      <point x="300" y="-180"/>
    </contour>
  </outline>
</glyph>
<glyph name="caroncomb.alt" format="2">
  <anchor x="0" y="720" name="_topright"/>
  <outline>
    <contour>
      <point x="20" y="560" type="line"/>
      <point x="120" y="560" type="line"/>
      <point x="122" y="720" type="line"/>
      <point x="22" y="720" type="line"/>
    </contour>
  </outline>
</glyph>
<glyph name="circumflexcomb.narrow" format="2">
  <anchor x="200" y="500" name="_top"/>
  <anchor x="200" y="720" name="top"/>
  <outline>
    <contour>
      <point x="80" y="560" type="line"/>
      <point x="176" y="560" type="line"/>
      <point x="198" y="661" type="line"/>
      <point x="220" y="560" type="line"/>
      <point x="320" y="560" type="line"/>
      <point x="290" y="720" type="line"/>
      <point x="110" y="720" type="line"/>
    </contour>
  </outline>
</glyph>
<glyph name="de-cy.loclBGR" format="2">
  <advance width="574"/>
  <anchor x="282" y="-200" name="bottom"/>
  <anchor x="272" y="500" name="top"/>
  <outline>
    <contour>
      <point x="270" y="-212" type="qcurve" smooth="yes"/>
      <point x="340" y="-212"/>
      <point x="450" y="-168"/>
      <point x="518" y="-56"/>
      <point x="518" y="20" type="qcurve" smooth="yes"/>
      <point x="518" y="258" type="line"/>
      <point x="518" y="330"/>
      <point x="470" y="444"/>
      <point x="358" y="512"/>
      <point x="274" y="512" type="qcurve" smooth="yes"/>
      <point x="194" y="512"/>
      <point x="82" y="446"/>
      <point x="24" y="334"/>
      <point x="24" y="258" type="qcurve" smooth="yes"/>
      <point x="24" y="182"/>
      <point x="74" y="70"/>
      <point x="172" y="4"/>
      <point x="234" y="4" type="qcurve" smooth="yes"/>
      <point x="260" y="4"/>
      <point x="318" y="22"/>
      <point x="364" y="62"/>
      <point x="376" y="92" type="qcurve"/>
      <point x="376" y="20" type="line" smooth="yes"/>
      <point x="376" y="-28"/>
      <point x="346" y="-80"/>
      <point x="296" y="-100"/>
      <point x="266" y="-100" type="qcurve" smooth="yes"/>
      <point x="236" y="-100"/>
      <point x="198" y="-86"/>
      <point x="178" y="-56"/>
      <point x="178" y="-40" type="qcurve"/>
      <point x="34" y="-40" type="line"/>
      <point x="36" y="-76"/>
      <point x="90" y="-162"/>
      <point x="200" y="-212"/>
    </contour>
    <contour>
      <point x="274" y="124" type="qcurve" smooth="yes"/>
      <point x="240" y="124"/>
      <point x="194" y="158"/>
      <point x="170" y="218"/>
      <point x="170" y="258" type="qcurve" smooth="yes"/>
      <point x="170" y="298"/>
      <point x="194" y="358"/>
      <point x="240" y="392"/>
      <point x="274" y="392" type="qcurve" smooth="yes"/>
      <point x="308" y="392"/>
      <point x="354" y="358"/>
      <point x="378" y="298"/>
      <point x="378" y="258" type="qcurve" smooth="yes"/>
      <point x="378" y="218"/>
      <point x="354" y="158"/>
      <point x="308" y="124"/>
    </contour>
  </outline>
</glyph>
<glyph name="dieresiscomb.narrow" format="2">
  <anchor x="150" y="500" name="_top"/>
  <anchor x="150" y="720" name="top"/>
  <outline>
    <contour>
      <point x="225" y="548" type="qcurve"/>
      <point x="254" y="548"/>
      <point x="288" y="595"/>
      <point x="288" y="638" type="qcurve" smooth="yes"/>
      <point x="288" y="648" type="line" smooth="yes"/>
      <point x="288" y="691"/>
      <point x="254" y="738"/>
      <point x="225" y="738" type="qcurve"/>
      <point x="196" y="738"/>
      <point x="162" y="691"/>
      <point x="162" y="648" type="qcurve" smooth="yes"/>
      <point x="162" y="638" type="line" smooth="yes"/>
      <point x="162" y="595"/>
      <point x="196" y="548"/>
    </contour>
    <contour>
      <point x="75" y="548" type="qcurve"/>
      <point x="104" y="548"/>
      <point x="138" y="595"/>
      <point x="138" y="638" type="qcurve" smooth="yes"/>
      <point x="138" y="648" type="line" smooth="yes"/>
      <point x="138" y="691"/>
      <point x="104" y="738"/>
      <point x="75" y="738" type="qcurve"/>
      <point x="46" y="738"/>
      <point x="12" y="691"/>
      <point x="12" y="648" type="qcurve" smooth="yes"/>
      <point x="12" y="638" type="line" smooth="yes"/>
      <point x="12" y="595"/>
      <point x="46" y="548"/>
    </contour>
  </outline>
</glyph>
<glyph name="f_t" format="2">
  <advance width="720"/>
  <outline>
    <contour>
      <point x="98" y="0" type="line"/>
      <point x="240" y="0" type="line"/>
      <point x="240" y="380" type="line"/>
      <point x="438" y="380" type="line"/>
      <point x="438" y="140" type="line" smooth="yes"/>
      <point x="438" y="68"/>
      <point x="512" y="0"/>
      <point x="586" y="0" type="qcurve" smooth="yes"/>
      <point x="684" y="0" type="line"/>
      <point x="684" y="114" type="line"/>
      <point x="626" y="114" type="line" smooth="yes"/>
      <point x="602" y="114"/>
      <point x="578" y="138"/>
      <point x="578" y="162" type="qcurve" smooth="yes"/>
      <point x="578" y="380" type="line"/>
      <point x="684" y="380" type="line"/>
      <point x="684" y="500" type="line"/>
      <point x="578" y="500" type="line"/>
      <point x="578" y="620" type="line"/>
      <point x="438" y="620" type="line"/>
      <point x="438" y="500" type="line"/>
      <point x="240" y="500" type="line"/>
      <point x="240" y="560" type="line" smooth="yes"/>
      <point x="240" y="584"/>
      <point x="264" y="608"/>
      <point x="288" y="608" type="qcurve" smooth="yes"/>
      <point x="344" y="608" type="line"/>
      <point x="344" y="720" type="line"/>
      <point x="246" y="720" type="line" smooth="yes"/>
      <point x="172" y="720"/>
      <point x="98" y="652"/>
      <point x="98" y="580" type="qcurve" smooth="yes"/>
      <point x="98" y="500" type="line"/>
      <point x="20" y="500" type="line"/>
      <point x="20" y="380" type="line"/>
      <point x="98" y="380" type="line"/>
    </contour>
  </outline>
</glyph>
<glyph name="g.ss01" format="2">
  <advance width="554"/>
  <anchor x="274" y="-200" name="bottom"/>
  <anchor x="410" y="330" name="center"/>
  <anchor x="274" y="500" name="top"/>
  <outline>
    <contour>
      <point x="277" y="-224" type="qcurve" smooth="yes"/>
      <point x="377" y="-224"/>
      <point x="476" y="-192"/>
      <point x="530" y="-122"/>
      <point x="530" y="-70" type="qcurve" smooth="yes"/>
      <point x="530" y="-18"/>
      <point x="476" y="52"/>
      <point x="377" y="84"/>
      <point x="277" y="84" type="qcurve"/>
      <point x="229" y="84" type="line" smooth="yes"/>
      <point x="212" y="84"/>
      <point x="191" y="101"/>
      <point x="191" y="116" type="qcurve" smooth="yes"/>
      <point x="191" y="131"/>
      <point x="212" y="148"/>
      <point x="229" y="148" type="qcurve" smooth="yes"/>
      <point x="271" y="148" type="line" smooth="yes"/>
      <point x="347" y="148"/>
      <point x="447" y="192"/>
      <point x="492" y="268"/>
      <point x="492" y="308" type="qcurve" smooth="yes"/>
      <point x="492" y="328"/>
      <point x="478" y="376"/>
      <point x="464" y="394" type="qcurve"/>
      <point x="530" y="394" type="line"/>
      <point x="530" y="500" type="line"/>
      <point x="364" y="500" type="line"/>
      <point x="321" y="512"/>
      <point x="270" y="512" type="qcurve" smooth="yes"/>
      <point x="200" y="512"/>
      <point x="97" y="464"/>
      <point x="42" y="380"/>
      <point x="42" y="330" type="qcurve" smooth="yes"/>
      <point x="42" y="286"/>
      <point x="69" y="228"/>
      <point x="102" y="194"/>
      <point x="116" y="186" type="qcurve"/>
      <point x="100" y="178"/>
      <point x="76" y="144"/>
      <point x="65" y="108"/>
      <point x="65" y="84" type="qcurve" smooth="yes"/>
      <point x="65" y="48"/>
      <point x="95" y="2"/>
      <point x="159" y="-30"/>
      <point x="215" y="-30" type="qcurve" smooth="yes"/>
      <point x="277" y="-30" type="line"/>
      <point x="325" y="-30"/>
      <point x="379" y="-36"/>
      <point x="404" y="-54"/>
      <point x="404" y="-70" type="qcurve" smooth="yes"/>
      <point x="404" y="-86"/>
      <point x="379" y="-104"/>
      <point x="325" y="-110"/>
      <point x="277" y="-110" type="qcurve" smooth="yes"/>
      <point x="229" y="-110"/>
      <point x="175" y="-104"/>
      <point x="150" y="-86"/>
      <point x="150" y="-70" type="qcurve" smooth="yes"/>
      <point x="150" y="-54"/>
      <point x="175" y="-36"/>
      <point x="229" y="-30"/>
      <point x="277" y="-30" type="qcurve"/>
      <point x="277" y="64" type="line"/>
      <point x="197" y="64"/>
      <point x="83" y="44"/>
      <point x="24" y="-22"/>
      <point x="24" y="-70" type="qcurve" smooth="yes"/>
      <point x="24" y="-122"/>
      <point x="78" y="-192"/>
      <point x="177" y="-224"/>
    </contour>
    <contour>
      <point x="270" y="256" type="qcurve" smooth="yes"/>
      <point x="246" y="256"/>
      <point x="210" y="270"/>
      <point x="188" y="306"/>
      <point x="188" y="330" type="qcurve" smooth="yes"/>
      <point x="188" y="354"/>
      <point x="210" y="390"/>
      <point x="246" y="404"/>
      <point x="270" y="404" type="qcurve" smooth="yes"/>
      <point x="294" y="404"/>
      <point x="330" y="390"/>
      <point x="352" y="354"/>
      <point x="352" y="330" type="qcurve"/>
      <point x="352" y="306"/>
      <point x="330" y="270"/>
      <point x="294" y="256"/>
    </contour>
  </outline>
</glyph>
<glyph name="g.ss02" format="2">
  <advance width="550"/>
  <anchor x="272" y="-200" name="bottom"/>
  <anchor x="410" y="330" name="center"/>
  <anchor x="272" y="500" name="top"/>
  <outline>
    <contour>
      <point x="275" y="148" type="qcurve" smooth="yes"/>
      <point x="341" y="148"/>
      <point x="445" y="190"/>
      <point x="503" y="276"/>
      <point x="503" y="330" type="qcurve" smooth="yes"/>
      <point x="503" y="384"/>
      <point x="445" y="468"/>
      <point x="341" y="512"/>
      <point x="275" y="512" type="qcurve" smooth="yes"/>
      <point x="209" y="512"/>
      <point x="105" y="468"/>
      <point x="47" y="384"/>
      <point x="47" y="330" type="qcurve" smooth="yes"/>
      <point x="47" y="276"/>
      <point x="105" y="190"/>
      <point x="209" y="148"/>
    </contour>
    <contour>
      <point x="275" y="256" type="qcurve" smooth="yes"/>
      <point x="251" y="256"/>
      <point x="215" y="270"/>
      <point x="193" y="306"/>
      <point x="193" y="330" type="qcurve" smooth="yes"/>
      <point x="193" y="354"/>
      <point x="215" y="390"/>
      <point x="251" y="404"/>
      <point x="275" y="404" type="qcurve" smooth="yes"/>
      <point x="299" y="404"/>
      <point x="335" y="390"/>
      <point x="357" y="354"/>
      <point x="357" y="330" type="qcurve"/>
      <point x="357" y="306"/>
      <point x="335" y="270"/>
      <point x="299" y="256"/>
    </contour>
    <contour>
      <point x="275" y="94" type="qcurve" smooth="yes"/>
      <point x="166" y="94"/>
      <point x="24" y="17"/>
      <point x="24" y="-70" type="qcurve" smooth="yes"/>
      <point x="24" y="-157"/>
      <point x="166" y="-234"/>
      <point x="275" y="-234" type="qcurve" smooth="yes"/>
      <point x="384" y="-234"/>
      <point x="526" y="-157"/>
      <point x="526" y="-70" type="qcurve" smooth="yes"/>
      <point x="526" y="18"/>
      <point x="385" y="94"/>
    </contour>
    <contour>
      <point x="152" y="-70" type="qcurve" smooth="yes"/>
      <point x="152" y="-43"/>
      <point x="209" y="-20"/>
      <point x="275" y="-20" type="qcurve" smooth="yes"/>
      <point x="341" y="-20"/>
      <point x="398" y="-43"/>
      <point x="398" y="-70" type="qcurve" smooth="yes"/>
      <point x="398" y="-97"/>
      <point x="341" y="-120"/>
      <point x="275" y="-120" type="qcurve" smooth="yes"/>
      <point x="209" y="-120"/>
      <point x="152" y="-97"/>
    </contour>
    <contour>
      <point x="335" y="209" type="line"/>
      <point x="215" y="209" type="line"/>
      <point x="215" y="20" type="line"/>
      <point x="335" y="20" type="line"/>
    </contour>
    <contour>
      <point x="586" y="500" type="line"/>
      <point x="443" y="500" type="line"/>
      <point x="365" y="413" type="line"/>
      <point x="463" y="350" type="line"/>
    </contour>
  </outline>
</glyph>
<glyph name="ge-cy.ss02" format="2">
  <advance width="420"/>
  <anchor x="170" y="240" name="center"/>
  <anchor x="240" y="500" name="top"/>
  <outline>
    <contour>
      <point x="56" y="0" type="line"/>
      <point x="198" y="0" type="line"/>
      <point x="198" y="324" type="line" smooth="yes"/>
      <point x="198" y="351"/>
      <point x="221" y="376"/>
      <point x="248" y="376" type="qcurve" smooth="yes"/>
      <point x="400" y="376" type="line"/>
      <point x="400" y="500" type="line"/>
      <point x="210" y="500" type="line" smooth="yes"/>
      <point x="129" y="500"/>
      <point x="56" y="430"/>
      <point x="56" y="352" type="qcurve" smooth="yes"/>
    </contour>
  </outline>
</glyph>
<glyph name="hardsign-cy.loclBGR" format="2">
  <advance width="560"/>
  <outline>
    <contour>
      <point x="10" y="380" type="line"/>
      <point x="256" y="380" type="line"/>
      <point x="256" y="500" type="line"/>
      <point x="10" y="500" type="line"/>
    </contour>
    <component base="softsign-cy.loclBGR" xOffset="60"/>
  </outline>
</glyph>
<glyph name="hook-2" format="2">
  <advance width="300"/>
  <outline>
    <contour>
      <point x="20" y="-200" type="line"/>
      <point x="120" y="-200" type="line" smooth="yes"/>
      <point x="200" y="-200"/>
      <point x="280" y="-128"/>
      <point x="280" y="-48" type="qcurve" smooth="yes"/>
      <point x="280" y="20" type="line"/>
      <point x="138" y="0" type="line"/>
      <point x="138" y="-24" type="line" smooth="yes"/>
      <point x="138" y="-57"/>
      <point x="112" y="-80"/>
      <point x="82" y="-80" type="qcurve" smooth="yes"/>
      <point x="20" y="-80" type="line"/>
    </contour>
  </outline>
</glyph>
<glyph name="jdotless.ss02" format="2">
  <advance width="256"/>
  <anchor x="128" y="-200" name="bottom"/>
  <anchor x="128" y="500" name="top"/>
  <outline>
    <contour>
      <point x="57" y="-200" type="line"/>
      <point x="199" y="-200" type="line"/>
      <point x="199" y="500" type="line"/>
      <point x="57" y="500" type="line"/>
    </contour>
  </outline>
</glyph>
<glyph name="kabashkir-cy.ss01" format="2">
  <advance width="650"/>
  <anchor x="334" y="500" name="top"/>
  <outline>
    <contour>
      <point x="200" y="310" type="line"/>
      <point x="200" y="196" type="line"/>
      <point x="360" y="196" type="line" smooth="yes"/>
      <point x="388" y="196"/>
      <point x="414" y="168"/>
      <point x="414" y="136" type="qcurve" smooth="yes"/>
      <point x="414" y="90" type="line" smooth="yes"/>
      <point x="414" y="0"/>
      <point x="514" y="0" type="qcurve" smooth="yes"/>
      <point x="610" y="0" type="line"/>
      <point x="610" y="102" type="line"/>
      <point x="568" y="102" type="line" smooth="yes"/>
      <point x="540" y="102"/>
      <point x="540" y="130" type="qcurve" smooth="yes"/>
      <point x="540" y="176" type="line" smooth="yes"/>
      <point x="540" y="208"/>
      <point x="510" y="242"/>
      <point x="486" y="250" type="qcurve"/>
      <point x="510" y="258"/>
      <point x="538" y="292"/>
      <point x="538" y="324" type="qcurve" smooth="yes"/>
      <point x="538" y="370" type="line" smooth="yes"/>
      <point x="538" y="398"/>
      <point x="566" y="398" type="qcurve" smooth="yes"/>
      <point x="610" y="398" type="line"/>
      <point x="610" y="500" type="line"/>
      <point x="512" y="500" type="line" smooth="yes"/>
      <point x="412" y="500"/>
      <point x="412" y="410" type="qcurve" smooth="yes"/>
      <point x="412" y="364" type="line" smooth="yes"/>
      <point x="412" y="336"/>
      <point x="388" y="310"/>
      <point x="362" y="310" type="qcurve" smooth="yes"/>
    </contour>
    <contour>
      <point x="136" y="0" type="line"/>
      <point x="276" y="0" type="line"/>
      <point x="276" y="500" type="line"/>
      <point x="16" y="500" type="line"/>
      <point x="16" y="380" type="line"/>
      <point x="136" y="380" type="line"/>
    </contour>
  </outline>
</glyph>
<glyph name="kahook-cy.ss01" format="2">
  <advance width="560"/>
  <outline>
    <contour>
      <point x="242" y="-200" type="line"/>
      <point x="286" y="-200" type="line" smooth="yes"/>
      <point x="397" y="-200"/>
      <point x="520" y="-74"/>
      <point x="520" y="38" type="qcurve" smooth="yes"/>
      <point x="520" y="111"/>
      <point x="465" y="222"/>
      <point x="411" y="256" type="qcurve"/>
      <point x="439" y="266"/>
      <point x="464" y="296"/>
      <point x="464" y="316" type="qcurve" smooth="yes"/>
      <point x="464" y="356" type="line" smooth="yes"/>
      <point x="464" y="388"/>
      <point x="492" y="388" type="qcurve" smooth="yes"/>
      <point x="536" y="388" type="line"/>
      <point x="536" y="500" type="line"/>
      <point x="446" y="500" type="line" smooth="yes"/>
      <point x="338" y="500"/>
      <point x="338" y="400" type="qcurve" smooth="yes"/>
      <point x="338" y="379" type="line" smooth="yes"/>
      <point x="338" y="340"/>
      <point x="310" y="304"/>
      <point x="278" y="304" type="qcurve" smooth="yes"/>
      <point x="194" y="304" type="line"/>
      <point x="194" y="500" type="line"/>
      <point x="56" y="500" type="line"/>
      <point x="56" y="0" type="line"/>
      <point x="194" y="0" type="line"/>
      <point x="194" y="184" type="line"/>
      <point x="263" y="184" type="line" smooth="yes"/>
      <point x="320" y="184"/>
      <point x="378" y="110"/>
      <point x="378" y="38" type="qcurve" smooth="yes"/>
      <point x="378" y="-18"/>
      <point x="319" y="-88"/>
      <point x="271" y="-88" type="qcurve" smooth="yes"/>
      <point x="242" y="-88" type="line"/>
    </contour>
  </outline>
</glyph>
<glyph name="l.ss01" format="2">
  <advance width="300"/>
  <anchor x="128" y="0" name="bottom"/>
  <anchor x="211" y="720" name="topright"/>
  <outline>
    <contour>
      <point x="200" y="0" type="qcurve" smooth="yes"/>
      <point x="288" y="0" type="line"/>
      <point x="288" y="114" type="line"/>
      <point x="242" y="114" type="line" smooth="yes"/>
      <point x="218" y="114"/>
      <point x="194" y="138"/>
      <point x="194" y="162" type="qcurve" smooth="yes"/>
      <point x="194" y="720" type="line"/>
      <point x="52" y="720" type="line"/>
      <point x="52" y="140" type="line" smooth="yes"/>
      <point x="52" y="68"/>
      <point x="126" y="0"/>
    </contour>
  </outline>
</glyph>
<glyph name="ldot.ss01" format="2">
  <advance width="390"/>
  <anchor x="133" y="0" name="bottom"/>
  <anchor x="216" y="720" name="topright"/>
  <outline>
    <contour>
      <point x="220" y="359" type="qcurve"/>
      <point x="220" y="319"/>
      <point x="266" y="268"/>
      <point x="302" y="268" type="qcurve" smooth="yes"/>
      <point x="310" y="268" type="line" smooth="yes"/>
      <point x="346" y="268"/>
      <point x="389" y="321"/>
      <point x="389" y="361" type="qcurve"/>
      <point x="389" y="401"/>
      <point x="343" y="452"/>
      <point x="307" y="452" type="qcurve" smooth="yes"/>
      <point x="299" y="452" type="line" smooth="yes"/>
      <point x="263" y="452"/>
      <point x="220" y="399"/>
    </contour>
    <component base="l.ss01" xOffset="5"/>
  </outline>
</glyph>
<glyph name="lslash.ss01" format="2">
  <advance width="300"/>
  <anchor x="149" y="0" name="bottom"/>
  <anchor x="232" y="720" name="topright"/>
  <outline>
    <contour>
      <point x="0" y="238" type="line"/>
      <point x="300" y="368" type="line"/>
      <point x="300" y="482" type="line"/>
      <point x="0" y="352" type="line"/>
    </contour>
    <component base="l.ss01" xOffset="21"/>
  </outline>
</glyph>
<glyph name="macroncomb.narrow" format="2">
  <anchor x="200" y="500" name="_top"/>
  <anchor x="200" y="720" name="top"/>
  <outline>
    <contour>
      <point x="106" y="590" type="line"/>
      <point x="294" y="590" type="line"/>
      <point x="294" y="690" type="line"/>
      <point x="106" y="690" type="line"/>
    </contour>
  </outline>
</glyph>
<glyph name="northEastArrow.cv01" format="2">
  <advance width="600"/>
  <outline>
    <contour>
      <point x="268" y="300" type="line"/>
      <point x="480" y="513" type="line"/>
      <point x="480" y="346" type="line"/>
      <point x="600" y="346" type="line"/>
      <point x="600" y="720" type="line"/>
      <point x="226" y="720" type="line"/>
      <point x="226" y="600" type="line"/>
      <point x="392" y="600" type="line"/>
      <point x="180" y="388" type="line"/>
    </contour>
  </outline>
</glyph>
<glyph name="numCircle" format="2">
  <advance width="860"/>
  <anchor x="430" y="360" name="center"/>
  <outline>
    <contour>
      <point x="430" y="-60" type="qcurve" smooth="yes"/>
      <point x="547" y="-60"/>
      <point x="643" y="-5" type="qcurve" smooth="yes"/>
      <point x="740" y="50"/>
      <point x="850" y="244"/>
      <point x="850" y="360" type="qcurve" smooth="yes"/>
      <point x="850" y="477"/>
      <point x="795" y="574" type="qcurve" smooth="yes"/>
      <point x="740" y="670"/>
      <point x="547" y="780"/>
      <point x="430" y="780" type="qcurve" smooth="yes"/>
      <point x="312" y="780"/>
      <point x="216" y="724" type="qcurve" smooth="yes"/>
      <point x="120" y="668"/>
      <point x="10" y="475"/>
      <point x="10" y="360" type="qcurve" smooth="yes"/>
      <point x="10" y="242"/>
      <point x="66" y="146" type="qcurve" smooth="yes"/>
      <point x="122" y="50"/>
      <point x="315" y="-60"/>
    </contour>
    <contour>
      <point x="430" y="30" type="qcurve" smooth="yes"/>
      <point x="339" y="30"/>
      <point x="262" y="73" type="qcurve" smooth="yes"/>
      <point x="187" y="116"/>
      <point x="100" y="268"/>
      <point x="100" y="360" type="qcurve" smooth="yes"/>
      <point x="100" y="455"/>
      <point x="144" y="531" type="qcurve" smooth="yes"/>
      <point x="187" y="605"/>
      <point x="339" y="690"/>
      <point x="430" y="690" type="qcurve" smooth="yes"/>
      <point x="522" y="690"/>
      <point x="599" y="647" type="qcurve" smooth="yes"/>
      <point x="674" y="603"/>
      <point x="760" y="451"/>
      <point x="760" y="360" type="qcurve" smooth="yes"/>
      <point x="760" y="268"/>
      <point x="717" y="192" type="qcurve" smooth="yes"/>
      <point x="673" y="116"/>
      <point x="521" y="30"/>
    </contour>
  </outline>
</glyph>
<glyph name="parenleft.small" format="2">
  <advance width="200"/>
  <outline>
    <contour>
      <point x="190" y="-9" type="qcurve"/>
      <point x="190" y="72" type="line"/>
      <point x="174" y="72"/>
      <point x="140" y="96"/>
      <point x="120" y="154"/>
      <point x="120" y="208" type="qcurve" smooth="yes"/>
      <point x="120" y="230" type="line" smooth="yes"/>
      <point x="120" y="284"/>
      <point x="140" y="344"/>
      <point x="174" y="368"/>
      <point x="190" y="368" type="qcurve"/>
      <point x="190" y="449" type="line"/>
      <point x="148" y="449"/>
      <point x="76" y="409"/>
      <point x="30" y="308"/>
      <point x="30" y="230" type="qcurve" smooth="yes"/>
      <point x="30" y="208" type="line" smooth="yes"/>
      <point x="30" y="130"/>
      <point x="76" y="31"/>
      <point x="148" y="-9"/>
    </contour>
  </outline>
</glyph>
<glyph name="r.ss02" format="2">
  <advance width="370"/>
  <anchor x="126" y="0" name="bottom"/>
  <anchor x="198" y="500" name="top"/>
  <outline>
    <contour>
      <point x="56" y="0" type="line"/>
      <point x="198" y="0" type="line"/>
      <point x="198" y="324" type="line" smooth="yes"/>
      <point x="198" y="351"/>
      <point x="221" y="376"/>
      <point x="248" y="376" type="qcurve" smooth="yes"/>
      <point x="350" y="376" type="line"/>
      <point x="350" y="500" type="line"/>
      <point x="210" y="500" type="line" smooth="yes"/>
      <point x="128" y="500"/>
      <point x="56" y="429"/>
      <point x="56" y="352" type="qcurve"/>
    </contour>
  </outline>
</glyph>
<glyph name="softsign-cy.loclBGR" format="2">
  <advance width="500"/>
  <outline>
    <contour>
      <point x="269" y="-10" type="qcurve" smooth="yes"/>
      <point x="370" y="-10"/>
      <point x="476" y="97"/>
      <point x="476" y="185" type="qcurve" smooth="yes"/>
      <point x="476" y="271"/>
      <point x="382" y="376"/>
      <point x="299" y="376" type="qcurve" smooth="yes"/>
      <point x="265" y="376"/>
      <point x="211" y="357"/>
      <point x="196" y="340" type="qcurve"/>
      <point x="196" y="500" type="line"/>
      <point x="54" y="500" type="line"/>
      <point x="54" y="217" type="line" smooth="yes"/>
      <point x="54" y="106"/>
      <point x="165" y="-10"/>
    </contour>
    <contour>
      <point x="265" y="110" type="qcurve" smooth="yes"/>
      <point x="232" y="110"/>
      <point x="196" y="150"/>
      <point x="196" y="185" type="qcurve" smooth="yes"/>
      <point x="196" y="220"/>
      <point x="232" y="260"/>
      <point x="265" y="260" type="qcurve" smooth="yes"/>
      <point x="299" y="260"/>
      <point x="334" y="220"/>
      <point x="334" y="185" type="qcurve" smooth="yes"/>
      <point x="334" y="149"/>
      <point x="299" y="110"/>
    </contour>
  </outline>
</glyph>
<glyph name="two.osf" format="2">
  <advance width="500"/>
  <outline>
    <contour>
      <point x="26" y="0" type="line"/>
      <point x="466" y="0" type="line"/>
      <point x="466" y="118" type="line"/>
      <point x="276" y="118" type="line"/>
      <point x="323" y="157" type="line" smooth="yes"/>
      <point x="359" y="187"/>
      <point x="422" y="248"/>
      <point x="448" y="310"/>
      <point x="448" y="346" type="qcurve" smooth="yes"/>
      <point x="448" y="400"/>
      <point x="392" y="474"/>
      <point x="301" y="512"/>
      <point x="237" y="512" type="qcurve" smooth="yes"/>
      <point x="173" y="512"/>
      <point x="81" y="464"/>
      <point x="30" y="382"/>
      <point x="30" y="340" type="qcurve"/>
      <point x="170" y="340" type="line"/>
      <point x="170" y="360"/>
      <point x="186" y="386"/>
      <point x="213" y="400"/>
      <point x="233" y="400" type="qcurve" smooth="yes"/>
      <point x="253" y="400"/>
      <point x="281" y="388"/>
      <point x="300" y="360"/>
      <point x="300" y="338" type="qcurve" smooth="yes"/>
      <point x="300" y="318"/>
      <point x="288" y="287"/>
      <point x="267" y="263"/>
      <point x="245" y="243" type="qcurve" smooth="yes"/>
      <point x="26" y="46" type="line"/>
    </contour>
  </outline>
</glyph>
<glyph name="vertical.1" format="2">
  <advance width="200"/>
  <anchor x="-3" y="0" name="_bot"/>
  <anchor x="17" y="0" name="bottom"/>
  <outline>
    <contour>
      <point x="45" y="-140" type="line"/>
      <point x="185" y="-140" type="line"/>
      <point x="185" y="120" type="line"/>
      <point x="13" y="120" type="line"/>
      <point x="13" y="0" type="line"/>
      <point x="45" y="0" type="line"/>
    </contour>
  </outline>
</glyph>
<glyph name="vertical.2" format="2">
  <advance width="150"/>
  <anchor x="13" y="0" name="bottom"/>
  <outline>
    <contour>
      <point x="13" y="-160" type="line"/>
      <point x="133" y="-160" type="line"/>
      <point x="133" y="40" type="line"/>
      <point x="13" y="40" type="line"/>
    </contour>
  </outline>
</glyph>
<glyph name="y.ss02" format="2">
  <advance width="500"/>
  <anchor x="230" y="-200" name="bottom"/>
  <anchor x="250" y="500" name="top"/>
  <outline>
    <contour>
      <point x="128" y="-200" type="line"/>
      <point x="272" y="-200" type="line"/>
      <point x="484" y="500" type="line"/>
      <point x="342" y="500" type="line"/>
      <point x="260" y="181" type="line"/>
      <point x="166" y="500" type="line"/>
      <point x="16" y="500" type="line"/>
      <point x="190" y="0" type="line"/>
    </contour>
  </outline>
</glyph>
<glyph name="yu-cy.loclBGR" format="2">
  <advance width="780"/>
  <anchor x="380" y="0" name="bottom"/>
  <anchor x="584" y="10" name="ogonek"/>
  <anchor x="380" y="500" name="top"/>
  <outline>
    <contour>
      <point x="56" y="0" type="line"/>
      <point x="192" y="0" type="line"/>
      <point x="192" y="196" type="line"/>
      <point x="305" y="196" type="line"/>
      <point x="305" y="316" type="line"/>
      <point x="192" y="316" type="line"/>
      <point x="192" y="720" type="line"/>
      <point x="56" y="720" type="line"/>
    </contour>
    <component base="o" xOffset="220"/>
  </outline>
</glyph>
<glyph name="zero.cv02" format="2">
  <advance width="620"/>
  <outline>
    <contour>
      <point x="204" y="100" type="line"/>
      <point x="495" y="561" type="line"/>
      <point x="417" y="620" type="line"/>
      <point x="125" y="159" type="line"/>
    </contour>
    <component base="zero"/>
  </outline>
</glyph>
